<svg width="822" height="852" viewBox="0 0 822 852" fill="none" xmlns="http://www.w3.org/2000/svg">
<rect width="822" height="852" fill="white"/>
<path d="M86.4912 333.081H76.1542C65.0616 333.081 54.4233 337.484 46.5797 345.323C38.736 353.162 34.3295 363.794 34.3295 374.88V604.253C34.3295 615.339 38.736 625.971 46.5797 633.81C54.4233 641.649 65.0616 646.052 76.1542 646.052H217.973C229.066 646.052 239.704 641.649 247.548 633.81C255.391 625.971 259.798 615.339 259.798 604.253" stroke="#150035" stroke-width="3" stroke-linecap="round" stroke-linejoin="round" stroke-dasharray="4.41 4.41"/>
<path d="M248.24 116.65V71.3431C248.24 64.5639 250.931 58.0616 255.722 53.2627C260.513 48.4637 267.013 45.7601 273.797 45.745H458.222C465.015 45.745 471.53 48.4419 476.334 53.2425C481.137 58.0431 483.836 64.554 483.836 71.3431" stroke="#150035" stroke-width="3" stroke-linecap="round" stroke-linejoin="round" stroke-dasharray="4.41 4.41"/>
<path d="M777.431 771.889C777.431 774.378 775.605 777.294 770.883 780.517C766.243 783.683 759.271 786.816 750.1 789.844C731.786 795.89 705.177 801.366 672.171 805.975C606.188 815.189 514.969 820.895 414.166 820.895C313.363 820.895 222.144 815.189 156.161 805.975C123.154 801.366 96.5464 795.89 78.2318 789.844C69.061 786.816 62.0887 783.683 57.4487 780.517C52.7265 777.294 50.9005 774.378 50.9005 771.889C50.9005 769.4 52.7265 766.484 57.4487 763.262C62.0887 760.095 69.061 756.962 78.2318 753.935C96.5464 747.888 123.154 742.413 156.161 737.804C222.144 728.59 313.363 722.884 414.166 722.884C514.969 722.884 606.188 728.59 672.171 737.804C705.177 742.413 731.786 747.888 750.1 753.935C759.271 756.962 766.243 760.095 770.883 763.262C775.605 766.484 777.431 769.4 777.431 771.889Z" fill="#FFB000" stroke="#150035" stroke-width="4"/>
<path d="M758.49 177.433V520.635C758.49 531.854 754.032 542.614 746.096 550.549C738.16 558.484 727.396 562.944 716.17 562.949H112.162C100.936 562.944 90.1718 558.484 82.2356 550.549C74.2995 542.614 69.8414 531.854 69.8414 520.635V177.433C69.8414 176.423 69.8414 175.527 69.9749 174.46C70.7184 163.784 75.4858 153.787 83.3152 146.485C91.1447 139.184 101.453 135.122 112.162 135.119H716.17C726.891 135.124 737.21 139.196 745.041 146.513C752.873 153.83 757.632 163.846 758.357 174.536C758.452 175.451 758.49 176.442 758.49 177.433Z" fill="white" stroke="#150035" stroke-width="3" stroke-linecap="round" stroke-linejoin="round"/>
<path d="M90.4391 190.318H740.048V507.35C740.048 517.864 735.868 527.948 728.429 535.383C720.99 542.818 710.899 546.995 700.378 546.995H130.128C119.607 546.995 109.517 542.818 102.077 535.383C94.6376 527.948 90.4581 517.864 90.4581 507.35V190.318H90.4391Z" fill="white"/>
<path d="M758.356 174.536H69.9742C70.7178 163.86 75.4851 153.862 83.3146 146.561C91.144 139.26 101.453 135.198 112.161 135.195H716.169C726.878 135.198 737.186 139.26 745.016 146.561C752.845 153.862 757.613 163.86 758.356 174.536Z" fill="#FFB000" stroke="#150035" stroke-width="3" stroke-miterlimit="10"/>
<path d="M154.559 154.79C154.559 156.271 154.119 157.719 153.296 158.951C152.472 160.183 151.302 161.143 149.932 161.71C148.562 162.277 147.055 162.425 145.601 162.136C144.147 161.847 142.812 161.134 141.764 160.086C140.715 159.039 140.002 157.704 139.712 156.251C139.423 154.798 139.572 153.292 140.139 151.923C140.706 150.554 141.667 149.384 142.899 148.561C144.132 147.738 145.581 147.299 147.064 147.299C149.051 147.299 150.958 148.088 152.364 149.493C153.769 150.898 154.559 152.803 154.559 154.79Z" fill="#263238"/>
<path d="M186.256 154.79C186.256 156.271 185.817 157.719 184.993 158.951C184.17 160.183 182.999 161.143 181.629 161.71C180.26 162.277 178.753 162.425 177.299 162.136C175.845 161.847 174.509 161.134 173.461 160.086C172.413 159.039 171.699 157.704 171.41 156.251C171.121 154.798 171.269 153.292 171.836 151.923C172.404 150.554 173.364 149.384 174.597 148.561C175.83 147.738 177.279 147.299 178.761 147.299C180.749 147.299 182.655 148.088 184.061 149.493C185.467 150.898 186.256 152.803 186.256 154.79V154.79Z" fill="#263238"/>
<path d="M210.459 162.28C214.598 162.28 217.954 158.927 217.954 154.79C217.954 150.653 214.598 147.299 210.459 147.299C206.319 147.299 202.963 150.653 202.963 154.79C202.963 158.927 206.319 162.28 210.459 162.28Z" fill="#263238"/>
<path d="M740.048 190.318V507.35C740.048 517.864 735.869 527.948 728.429 535.383C720.99 542.818 710.899 546.995 700.378 546.995H130.128C120.945 546.994 112.048 543.808 104.953 537.983C97.8577 532.157 93.0045 524.052 91.221 515.05V514.936C90.7362 512.423 90.4935 509.87 90.4963 507.312V190.318H740.048Z" fill="#FFB000" stroke="#150035" stroke-width="3" stroke-miterlimit="10"/>
<path d="M739.438 239.341C736.657 237.781 733.698 236.558 730.626 235.701L727.06 219.786H711.917L708.389 235.701C705.299 236.543 702.327 237.766 699.539 239.341L685.865 230.593L675.165 241.248L683.767 254.914C682.192 257.7 680.969 260.671 680.124 263.758L664.199 267.284V282.418L680.124 285.982C680.959 289.085 682.183 292.069 683.767 294.864L675.013 308.626L685.731 319.319L699.482 310.57C702.264 312.148 705.229 313.378 708.312 314.23L711.86 330.126H726.946L730.493 314.23C733.567 313.369 736.525 312.14 739.304 310.57L740.01 311.028V238.96L739.438 239.341ZM719.527 294.617C715.656 294.617 711.872 293.469 708.653 291.32C705.435 289.17 702.927 286.115 701.446 282.54C699.966 278.966 699.58 275.033 700.336 271.238C701.093 267.444 702.958 263.96 705.697 261.226C708.435 258.492 711.924 256.631 715.721 255.878C719.518 255.126 723.453 255.516 727.028 256.999C730.603 258.482 733.658 260.991 735.806 264.21C737.954 267.428 739.098 271.211 739.094 275.08C739.094 277.647 738.588 280.189 737.604 282.561C736.621 284.932 735.179 287.087 733.362 288.901C731.545 290.716 729.387 292.154 727.013 293.135C724.639 294.116 722.095 294.619 719.527 294.617Z" fill="#150035"/>
<path d="M466.518 254.685V222.778L432.952 215.325C431.14 208.843 428.58 202.594 425.323 196.703L429.385 190.318H270.898L274.807 196.532C271.51 202.396 268.948 208.644 267.179 215.135L233.593 222.607V254.59L267.179 262.081C268.948 268.619 271.51 274.918 274.807 280.836L256.365 309.827L278.965 332.394L307.954 313.944C313.835 317.25 320.091 319.842 326.588 321.663L334.064 355.114H365.914L373.428 321.587C379.904 319.757 386.139 317.166 392.004 313.868L421.013 332.318L443.594 309.751L425.266 280.76C428.515 274.879 431.075 268.643 432.895 262.176L466.518 254.685ZM350.18 279.959C342.021 279.959 334.045 277.541 327.261 273.011C320.477 268.481 315.19 262.042 312.067 254.509C308.945 246.975 308.128 238.686 309.72 230.688C311.311 222.691 315.24 215.345 321.01 209.579C326.779 203.813 334.129 199.887 342.132 198.296C350.134 196.705 358.428 197.522 365.966 200.642C373.504 203.763 379.947 209.047 384.48 215.827C389.013 222.607 391.432 230.578 391.432 238.732C391.435 244.146 390.369 249.509 388.297 254.512C386.225 259.515 383.186 264.061 379.355 267.89C375.524 271.718 370.975 274.755 365.969 276.826C360.963 278.897 355.598 279.962 350.18 279.959Z" fill="#150035"/>
<path d="M254.686 473.784L256.041 448.453L229.779 441.058C228.559 435.852 226.755 430.801 224.4 426L240.268 403.737L223.256 384.887L199.492 398.229C194.95 395.373 190.093 393.051 185.017 391.31L180.478 364.397L155.15 363.234L147.826 389.557C142.608 390.726 137.55 392.518 132.76 394.893L110.503 379.054L91.6025 396.037L105.067 419.805C102.181 424.325 99.8498 429.176 98.1251 434.253L90.4963 435.511V469.82L96.0653 471.383C97.2207 476.605 99.0075 481.668 101.386 486.46L90.4391 501.803L91.1638 514.936V515.05L102.473 527.573L126.275 514.135C130.81 517.05 135.684 519.399 140.789 521.13L145.252 546.976L145.462 548.063L170.789 549.397L171.457 546.976L178.113 523.094C183.354 521.921 188.438 520.129 193.256 517.757L215.475 533.577L234.356 516.613L221.005 492.826C223.865 488.312 226.164 483.467 227.852 478.397L254.686 473.784ZM187.42 434.234C183.081 429.411 177.409 425.983 171.121 424.383C164.832 422.782 158.21 423.082 152.092 425.243C145.974 427.405 140.634 431.331 136.75 436.526C132.865 441.721 130.609 447.95 130.267 454.427C129.926 460.903 131.514 467.335 134.83 472.909C138.147 478.483 143.044 482.949 148.9 485.742C154.757 488.534 161.311 489.528 167.733 488.597C174.155 487.666 180.157 484.853 184.979 480.513C191.417 474.7 195.288 466.574 195.746 457.915C196.203 449.256 193.209 440.769 187.42 434.31V434.234Z" fill="#263238"/>
<path d="M457.268 436.026C458.249 432.103 458.767 428.08 458.813 424.037L477.027 414.507L471.992 396.037L451.432 396.99C449.35 393.538 446.873 390.34 444.052 387.46L450.136 367.809L433.543 358.278L419.659 373.412C415.741 372.467 411.73 371.956 407.701 371.888L398.165 353.685L379.703 358.698L380.676 379.264C377.221 381.345 374.021 383.82 371.14 386.64L351.457 380.56L341.921 397.124L357.179 410.98C356.192 414.888 355.686 418.901 355.672 422.931L337.42 432.462L342.455 450.912L363.053 449.94C365.095 453.409 367.561 456.611 370.396 459.47L364.274 479.026L380.885 488.556L394.693 473.537C398.616 474.524 402.645 475.029 406.69 475.043L416.226 493.264L434.687 488.251L433.867 470.678L433.734 467.666C437.237 465.606 440.477 463.129 443.384 460.29L463.047 466.389L471.172 452.208L472.545 449.807L457.268 436.026ZM413.651 447.233C408.917 448.538 403.901 448.409 399.241 446.861C394.58 445.313 390.484 442.417 387.473 438.539C384.462 434.662 382.671 429.978 382.327 425.082C381.983 420.186 383.101 415.298 385.541 411.038C387.98 406.779 391.631 403.339 396.029 401.155C400.428 398.972 405.376 398.143 410.246 398.774C415.116 399.404 419.69 401.467 423.386 404.699C427.082 407.931 429.734 412.187 431.006 416.927C432.702 423.245 431.829 429.977 428.578 435.655C425.327 441.332 419.961 445.494 413.651 447.233Z" fill="#150035"/>
<path d="M668.433 468.505L672.629 443.154L646.958 432.843C646.375 427.44 645.139 422.128 643.277 417.023L661.758 396.456L646.805 375.49L621.325 386.297C617.095 382.908 612.472 380.041 607.555 377.758L606.068 350.14L580.702 345.946L570.308 371.487C564.925 372.119 559.633 373.366 554.535 375.204L533.899 356.734L513.016 371.678L523.849 397.123C520.867 400.843 518.278 404.861 516.124 409.112C515.838 409.703 515.533 410.294 515.266 410.885L487.65 412.41L483.435 437.722L487.593 439.399L509.106 448.072C509.693 453.449 510.929 458.735 512.787 463.816L494.268 484.515L509.24 505.482L534.701 494.617C538.917 498.037 543.535 500.93 548.451 503.233L549.882 530.718L575.228 534.911L585.604 509.561C590.998 508.972 596.3 507.73 601.395 505.863L621.993 524.333L642.972 509.37L632.139 483.905C635.59 479.674 638.504 475.032 640.817 470.087L668.433 468.505ZM597.295 467.361C591.958 471.187 585.607 473.346 579.042 473.565C572.478 473.783 565.997 472.051 560.418 468.588C554.839 465.124 550.413 460.085 547.7 454.108C544.986 448.13 544.108 441.483 545.175 435.007C546.242 428.53 549.207 422.516 553.695 417.723C558.183 412.931 563.992 409.577 570.388 408.084C576.783 406.591 583.478 407.028 589.625 409.338C595.773 411.649 601.097 415.729 604.923 421.063C610.049 428.219 612.121 437.117 610.684 445.799C609.246 454.481 604.416 462.237 597.256 467.361H597.295Z" fill="#150035"/>
<path d="M324.681 280.836H125.226C111.417 280.836 100.223 292.024 100.223 305.824V581.8C100.223 595.6 111.417 606.788 125.226 606.788H324.681C338.489 606.788 349.684 595.6 349.684 581.8V305.824C349.684 292.024 338.489 280.836 324.681 280.836Z" fill="white" stroke="#150035" stroke-width="3" stroke-miterlimit="10"/>
<path opacity="0.2" d="M323.937 281.274H124.483C110.674 281.274 99.4792 292.462 99.4792 306.262V582.238C99.4792 596.039 110.674 607.226 124.483 607.226H323.937C337.746 607.226 348.94 596.039 348.94 582.238V306.262C348.94 292.462 337.746 281.274 323.937 281.274Z" fill="black"/>
<path d="M372.894 330.45V606.426C372.897 609.709 372.252 612.96 370.997 615.994C369.741 619.028 367.9 621.785 365.578 624.107C363.256 626.43 360.499 628.272 357.464 629.529C354.429 630.786 351.176 631.433 347.891 631.433H148.437C145.153 631.43 141.903 630.782 138.87 629.523C135.837 628.265 133.082 626.423 130.762 624.101C128.442 621.778 126.603 619.022 125.349 615.99C124.094 612.957 123.45 609.707 123.453 606.426V330.45C123.453 323.826 126.084 317.473 130.769 312.788C135.454 308.102 141.809 305.467 148.437 305.462H347.891C354.522 305.462 360.882 308.095 365.571 312.781C370.26 317.467 372.894 323.823 372.894 330.45Z" fill="white" stroke="#150035" stroke-width="3" stroke-linecap="round" stroke-linejoin="round"/>
<path d="M372.894 330.45V345.222H123.453V330.45C123.453 323.826 126.084 317.473 130.769 312.788C135.454 308.102 141.809 305.467 148.437 305.462H347.891C354.522 305.462 360.882 308.095 365.571 312.781C370.26 317.467 372.894 323.823 372.894 330.45Z" fill="#FFB000" stroke="#150035" stroke-width="3" stroke-miterlimit="10"/>
<path d="M208.285 362.338H146.911V372.631H208.285V362.338Z" fill="#FFB000"/>
<path d="M208.285 454.572H146.911V464.864H208.285V454.572Z" fill="#FFB000"/>
<path d="M208.285 538.209H146.911V548.501H208.285V538.209Z" fill="#FFB000"/>
<path d="M321.209 387.822H146.911V395.37H321.209V387.822Z" fill="#150035"/>
<path d="M289.779 402.251H146.911V409.608H289.779V402.251Z" fill="#150035"/>
<path d="M308.489 416.451H146.911V423.808H308.489V416.451Z" fill="#150035"/>
<path d="M308.489 430.632H146.911V437.989H308.489V430.632Z" fill="#150035"/>
<path d="M321.209 471.459H146.911V479.007H321.209V471.459Z" fill="#150035"/>
<path d="M289.779 485.888H146.911V493.245H289.779V485.888Z" fill="#150035"/>
<path d="M308.489 500.088H146.911V507.445H308.489V500.088Z" fill="#150035"/>
<path d="M321.209 563.292H146.911V570.84H321.209V563.292Z" fill="#150035"/>
<path d="M289.779 577.74H146.911V585.097H289.779V577.74Z" fill="#150035"/>
<path d="M308.489 591.94H146.911V599.297H308.489V591.94Z" fill="#150035"/>
<path d="M654.034 114.096V225.637C654.034 229.551 653.262 233.426 651.763 237.042C650.263 240.658 648.066 243.943 645.296 246.709C642.526 249.476 639.237 251.67 635.619 253.166C632 254.662 628.121 255.431 624.205 255.428H367.154C363.238 255.431 359.359 254.662 355.74 253.166C352.121 251.67 348.833 249.476 346.063 246.709C343.293 243.943 341.095 240.658 339.596 237.042C338.097 233.426 337.325 229.551 337.325 225.637V114.096C337.33 106.191 340.475 98.6113 346.067 93.0219C351.66 87.4324 359.244 84.2901 367.154 84.285H624.205C632.116 84.285 639.703 87.4258 645.297 93.0163C650.891 98.6069 654.034 106.189 654.034 114.096Z" fill="white" stroke="#150035" stroke-width="3" stroke-miterlimit="10"/>
<path d="M654.034 114.096V116.65H337.325V114.096C337.33 106.191 340.475 98.6113 346.067 93.0219C351.66 87.4324 359.244 84.2901 367.154 84.285H624.205C632.116 84.285 639.703 87.4258 645.297 93.0163C650.891 98.6069 654.034 106.189 654.034 114.096Z" fill="#FFB000" stroke="#150035" stroke-width="3" stroke-miterlimit="10"/>
<path d="M383.861 105.804C383.221 106.445 382.405 106.882 381.517 107.059C380.629 107.237 379.708 107.147 378.871 106.801C378.034 106.455 377.319 105.869 376.815 105.116C376.312 104.364 376.043 103.479 376.043 102.574C376.043 101.668 376.312 100.783 376.815 100.031C377.319 99.2784 378.034 98.6921 378.871 98.3462C379.708 98.0003 380.629 97.9103 381.517 98.0877C382.405 98.2651 383.221 98.7019 383.861 99.3428C384.712 100.203 385.19 101.364 385.19 102.574C385.19 103.783 384.712 104.944 383.861 105.804V105.804Z" fill="#263238"/>
<path d="M405.069 105.804C404.429 106.445 403.613 106.882 402.725 107.059C401.837 107.237 400.916 107.147 400.079 106.801C399.242 106.455 398.527 105.869 398.023 105.116C397.52 104.364 397.251 103.479 397.251 102.574C397.251 101.668 397.52 100.783 398.023 100.031C398.527 99.2784 399.242 98.6921 400.079 98.3462C400.916 98.0003 401.837 97.9103 402.725 98.0877C403.613 98.2651 404.429 98.7019 405.069 99.3428C405.92 100.203 406.398 101.364 406.398 102.574C406.398 103.783 405.92 104.944 405.069 105.804V105.804Z" fill="#263238"/>
<path d="M426.277 105.804C425.637 106.445 424.821 106.882 423.933 107.059C423.045 107.237 422.124 107.147 421.287 106.801C420.45 106.455 419.735 105.869 419.231 105.116C418.728 104.364 418.459 103.479 418.459 102.574C418.459 101.668 418.728 100.783 419.231 100.031C419.735 99.2784 420.45 98.6921 421.287 98.3462C422.124 98.0003 423.045 97.9103 423.933 98.0877C424.821 98.2651 425.637 98.7019 426.277 99.3428C427.128 100.203 427.606 101.364 427.606 102.574C427.606 103.783 427.128 104.944 426.277 105.804Z" fill="#263238"/>
<path d="M461.045 137.159H357.522V226.59H461.045V137.159Z" stroke="#150035" stroke-width="2" stroke-linecap="round" stroke-linejoin="round" stroke-dasharray="4.41 4.41"/>
<path d="M596.169 137.159H477.027V143.449H596.169V137.159Z" fill="#150035"/>
<path d="M568.42 150.177H477.027V156.448H568.42V150.177Z" fill="#150035"/>
<path d="M613.105 163.138H477.027V169.485H613.105V163.138Z" fill="#150035"/>
<path d="M592.908 175.775H477.027V182.122H592.908V175.775Z" fill="#150035"/>
<path d="M662.692 390.929H604.428C597.549 390.929 591.974 396.501 591.974 403.375V437.551C591.974 444.425 597.549 449.997 604.428 449.997H662.692C669.57 449.997 675.146 444.425 675.146 437.551V403.375C675.146 396.501 669.57 390.929 662.692 390.929Z" fill="white" stroke="#150035" stroke-width="3" stroke-linecap="round" stroke-linejoin="round"/>
<path d="M618.808 408.693L602.806 418.719L617.664 431.871" stroke="#150035" stroke-width="3" stroke-linecap="round" stroke-linejoin="round"/>
<path d="M647.95 432.824L662.33 420.587L645.737 409.722" stroke="#150035" stroke-width="3" stroke-linecap="round" stroke-linejoin="round"/>
<path d="M626.589 440.372L638.395 403.356" stroke="#150035" stroke-width="3" stroke-linecap="round" stroke-linejoin="round"/>
<path d="M503.537 762.492C503.537 762.492 448.228 778.332 440.504 781.076C433.486 783.554 414.452 790.225 400.167 788.148C398.788 787.95 397.424 787.657 396.086 787.271C381.61 782.963 375.107 778.941 373.2 769.85C371.292 760.758 378.502 754.049 385.444 749.76C392.386 745.472 430.034 740.992 430.034 740.992L439.131 743.661L503.537 762.492Z" fill="#FFB000"/>
<path d="M400.167 788.148C398.788 787.95 397.424 787.657 396.086 787.271C381.61 782.963 375.107 778.942 373.2 769.85C371.292 760.758 378.501 754.049 385.444 749.76C392.386 745.472 430.034 740.992 430.034 740.992L439.131 743.661C430.892 747.473 400.224 749.55 393.53 753.401C386.836 757.251 383.613 764.494 387.561 774.367C389.678 779.513 395.323 784.564 400.167 788.148Z" fill="#150035"/>
<path d="M495.222 764.741C495.222 764.741 453.683 775.492 437.205 782.372C420.727 789.253 389.315 792.265 378.082 778.084C366.848 763.903 376.785 751.666 387.98 748.94C399.175 746.215 421.814 741.926 434.172 743.661" stroke="#150035" stroke-width="3" stroke-linecap="round" stroke-linejoin="round"/>
<path d="M400.987 787.404C400.987 787.404 379.856 775.816 386.874 759.576C392.062 747.606 420.25 750.198 434.211 743.661" stroke="#150035" stroke-width="1.10311" stroke-linecap="round" stroke-linejoin="round"/>
<path d="M671.999 790.721C671.427 796.439 669.425 801.795 663.703 805.169C659.889 807.418 654.472 808.752 646.71 808.676C627.314 808.428 590.848 794.571 590.848 794.571L556.71 775.701L574.465 747.625L579.329 740.001L591.878 742.822C591.878 742.822 602.272 748.712 612.724 753.401C623.175 758.089 648.56 759.119 657.505 766.304C666.449 773.49 672.972 781.305 671.999 790.721Z" fill="#FFB000"/>
<path d="M671.999 790.721C671.427 796.439 669.425 801.795 663.703 805.169C665.351 799.548 665.014 793.531 662.749 788.129C658.935 779.571 646.519 772.023 630.194 770.765C613.868 769.507 601.376 761.882 594.834 758.471C589.723 755.821 578.947 750.027 574.465 747.625L579.329 740.001L591.878 742.822C591.878 742.822 602.272 748.712 612.724 753.401C623.175 758.089 648.56 759.119 657.505 766.304C666.449 773.49 672.972 781.305 671.999 790.721Z" fill="#150035"/>
<path d="M564.281 781C588.855 795.276 616.015 804.546 644.192 808.276C650.41 809.019 657.638 809.133 661.796 804.464C662.902 803.115 663.725 801.558 664.217 799.884C664.708 798.211 664.858 796.456 664.657 794.724C663.913 785.956 656.532 779.018 648.445 775.53C640.359 772.042 631.452 771.241 622.851 769.316C614.297 767.389 606.027 764.365 598.248 760.32C592.069 757.098 586.099 753.191 579.291 751.742C572.482 750.294 564.376 752.047 560.734 757.994" stroke="#263238" stroke-width="1.10311" stroke-linecap="round" stroke-linejoin="round"/>
<path d="M659.507 806.846C662.703 805.317 665.496 803.063 667.665 800.263C669.834 797.463 671.318 794.196 671.999 790.721C673.239 782.468 668.528 774.157 661.91 769.087C655.292 764.017 646.996 761.616 638.814 759.919C630.632 758.223 622.26 757.079 614.421 753.973C602.463 749.284 590.658 740.058 578.185 743.356" stroke="#150035" stroke-width="1.10311" stroke-linecap="round" stroke-linejoin="round"/>
<path d="M447.162 611.446L443.823 608.505L436.595 602.138L435.795 601.434L436.197 600.447L454.353 555.827L456.154 551.402L457.206 556.062L464.949 590.371L465.397 592.357L447.162 611.446ZM447.162 611.446L446.285 607.084L446.285 607.084L447.162 611.446ZM544.505 465.161L601.947 486.995L497.069 444.907L497.07 444.907L497.077 444.904L497.108 444.89C497.136 444.878 497.18 444.859 497.238 444.834C497.354 444.784 497.528 444.711 497.755 444.618C498.208 444.432 498.869 444.17 499.691 443.866C501.339 443.258 503.622 442.491 506.17 441.85C508.724 441.208 511.508 440.701 514.166 440.596C516.838 440.49 519.273 440.795 521.202 441.678C525.916 443.837 530.661 444.069 534.419 444.253L534.508 444.257C536.441 444.352 538.033 444.434 539.342 444.705C540.636 444.973 541.431 445.384 541.928 445.972L541.934 445.98C542.256 446.355 542.58 447.036 542.839 448.077C543.092 449.091 543.252 450.315 543.338 451.65C543.51 454.318 543.378 457.268 543.199 459.543L543.198 459.549C543.114 460.672 543.02 461.607 542.948 462.259C542.912 462.585 542.881 462.84 542.86 463.013C542.849 463.099 542.841 463.164 542.835 463.207L542.829 463.255L542.827 463.266L542.827 463.268L542.827 463.269L542.827 463.269L542.666 464.436L543.762 464.868L544.487 465.154L544.496 465.158L544.505 465.161ZM496.646 445.095L497.069 444.907L571.529 668.735C570.349 669.113 569.43 669.39 568.809 669.573C568.499 669.664 568.263 669.732 568.105 669.776C568.083 669.783 568.062 669.788 568.043 669.794L567.992 669.795C567.837 669.799 567.606 669.805 567.303 669.812C566.698 669.827 565.807 669.847 564.663 669.871C562.377 669.917 559.084 669.974 555.06 670.018C547.011 670.106 536.039 670.14 524.348 669.924C512.654 669.709 500.256 669.245 489.348 668.338C478.394 667.428 469.091 666.081 463.498 664.152C452.139 660.234 436.438 650.604 423.153 641.074C416.53 636.323 410.551 631.628 406.064 627.733C403.819 625.784 401.964 624.049 400.594 622.617C399.173 621.133 398.417 620.118 398.185 619.587C397.632 618.319 397.43 616.359 397.6 613.646C397.766 610.972 398.277 607.759 398.984 604.102C399.496 601.455 400.114 598.565 400.769 595.507C401.901 590.216 403.141 584.421 404.126 578.501C404.381 576.97 404.679 575.141 405.018 573.068C406.747 562.467 409.514 545.507 412.774 529.636C414.724 520.146 416.841 511.086 419.008 504.028C420.093 500.496 421.178 497.505 422.244 495.226C423.345 492.876 424.317 491.529 425.064 491.001L425.07 490.996C426.914 489.678 430.609 487.791 435.356 485.627C440.061 483.483 445.678 481.12 451.277 478.848C462.456 474.312 473.511 470.158 476.966 468.867L478.038 468.491L479.14 468.105L479.036 466.942L479.036 466.942L479.036 466.942L479.036 466.938L479.034 466.92L479.028 466.841C479.022 466.769 479.014 466.662 479.004 466.521C478.985 466.239 478.961 465.826 478.939 465.306C478.896 464.266 478.866 462.807 478.917 461.139C479.019 457.811 479.442 453.79 480.647 450.59C482.96 446.916 486.702 445.482 490.067 444.997C491.758 444.753 493.305 444.757 494.43 444.825C494.991 444.858 495.442 444.907 495.748 444.946C495.901 444.966 496.017 444.983 496.092 444.995C496.13 445.001 496.157 445.005 496.174 445.008L496.19 445.011L496.19 445.011L496.191 445.011L496.191 445.011L496.192 445.011L496.646 445.095ZM592.659 622.379L592.24 620.647C592.395 620.489 592.607 620.287 592.87 620.047C592.942 620.13 592.994 620.211 593.03 620.278C593.082 620.375 593.107 620.455 593.119 620.499C593.132 620.545 593.136 620.576 593.137 620.584C593.139 620.596 593.135 620.57 593.137 620.492C593.139 620.398 593.148 620.283 593.163 620.147C593.241 620.257 593.31 620.388 593.363 620.542C593.478 620.874 593.445 621.158 593.417 621.302C593.387 621.454 593.34 621.566 593.313 621.623C593.232 621.798 593.141 621.884 593.205 621.811C593.274 621.732 593.437 621.567 593.72 621.303C594.269 620.792 595.123 620.046 596.198 619.132C598.342 617.308 601.3 614.87 604.298 612.425C607.294 609.981 610.321 607.535 612.601 605.696C613.171 605.237 613.694 604.816 614.158 604.442C614.622 604.068 615.027 603.741 615.361 603.472C615.695 603.203 615.959 602.989 616.14 602.842C616.23 602.769 616.303 602.71 616.353 602.669C616.378 602.649 616.402 602.628 616.422 602.611C616.431 602.604 616.448 602.589 616.468 602.572C616.475 602.566 616.499 602.544 616.528 602.515C616.545 602.497 616.592 602.447 616.621 602.414C616.684 602.333 616.912 601.866 616.97 601.451V601.233L616.908 601.025C614.842 594.058 608.132 580.896 602.035 569.622C598.969 563.951 596.029 558.707 593.857 554.881C592.77 552.968 591.875 551.409 591.252 550.328C590.94 549.787 590.696 549.366 590.53 549.08L590.34 548.753L590.291 548.67L590.279 548.648L590.276 548.643L590.275 548.641C590.275 548.641 590.275 548.641 588.979 549.397L590.275 548.641L589.204 546.807L587.833 548.429L585.659 551.002L585.407 551.3L585.333 551.683L578.791 585.23L578.786 585.255L578.782 585.28L577.848 591.132L577.558 592.943L579.39 592.867H579.39H579.39L579.391 592.867L579.394 592.867L579.412 592.866C579.429 592.866 579.456 592.865 579.493 592.864C579.567 592.862 579.679 592.859 579.825 592.858C580.117 592.855 580.542 592.856 581.066 592.872C582.117 592.904 583.548 592.995 585.081 593.23C586.62 593.466 588.216 593.84 589.618 594.419C591.029 595.002 592.14 595.751 592.835 596.674C593.072 596.988 593.3 597.563 593.428 598.498C593.552 599.41 593.563 600.532 593.478 601.816C593.307 604.384 592.766 607.403 592.157 610.309C591.875 611.66 591.567 613.028 591.282 614.297C590.974 615.671 590.691 616.929 590.494 617.922C590.303 618.884 590.154 619.774 590.138 620.417C590.133 620.586 590.137 620.775 590.162 620.965C590.184 621.138 590.235 621.412 590.384 621.691C590.547 621.997 590.884 622.398 591.466 622.536C591.998 622.663 592.434 622.495 592.659 622.379Z" fill="#FFB000" stroke="#150035" stroke-width="3"/>
<path d="M493.734 346.556L463.906 378.197C463.906 378.197 459.805 381.837 461.426 391.005C463.047 400.173 466.862 408.16 469.742 408.693C472.021 409.092 474.331 409.296 476.646 409.303C476.646 409.303 483.035 423.141 487.574 428.573C487.574 428.573 489.138 449.94 488.299 455.868C488.299 455.868 499.017 465.226 509.106 466.408C519.195 467.59 534.777 452.151 534.777 452.151L538.591 433.243C538.591 433.243 547.746 419.367 548.356 415.669C548.966 411.972 553.162 412.925 555.222 411.095C557.282 409.265 562.031 401.126 562.851 393.426C563.671 385.726 563.69 376.882 554.745 379.474C546.983 377.396 551.846 361.004 551.846 361.004L538.21 348.996L493.734 346.556Z" fill="white"/>
<path opacity="0.5" d="M545.037 463.759C544.588 464.937 544.072 466.089 543.493 467.209C538.572 476.472 517.135 494.141 517.135 494.141L510.651 474.223L507.103 494.141C499.952 491.015 478.133 472.126 478.133 472.126C478.133 472.126 477.389 470.354 476.493 467.59L477.58 467.209C477.58 467.209 476.665 456.897 479.335 450.054C484.56 441.477 496.499 443.669 496.499 443.669C496.499 443.669 512.959 436.369 521.865 440.448C530.772 444.527 539.888 441.363 543.111 445.137C546.334 448.911 544.351 463.549 544.351 463.549L545.037 463.759Z" fill="white"/>
<path opacity="0.2" d="M602.806 485.716L545.037 463.759L544.313 463.473C544.313 463.473 544.523 461.948 544.694 459.661L543.493 467.151L534.948 478.74C544.082 482.101 552.999 486.022 561.649 490.481C565.79 492.698 569.169 496.108 571.345 500.269C573.522 504.429 574.397 509.148 573.855 513.811L563.213 604.825L558.846 656.497L572.024 670.164C585.909 665.704 635.171 647.291 661.319 604.062C661.319 604.139 635.992 521.169 602.806 485.716ZM591.974 621.045C589.971 622.074 597.695 600.631 594.033 595.771C590.371 590.911 579.329 591.368 579.329 591.368L580.263 585.517L586.805 551.97L588.979 549.397C588.979 549.397 611.446 587.88 615.47 601.451C615.47 601.489 590.982 621.045 591.974 621.045Z" fill="black"/>
<path opacity="0.2" d="M467.319 595.771L458.337 565.77C458.337 565.77 442.221 510.857 431.178 497.324L434.077 535.94C434.077 535.94 424.541 582.067 415.825 595.771C407.109 609.476 405.164 612.925 415.825 612.925C426.486 612.925 452.443 633.587 452.443 633.587L450.441 616.433L467.319 595.771ZM444.681 607.379L437.453 601.013L455.609 556.392L463.352 590.701C463.352 590.701 450.918 589.767 446.665 592.76C442.411 595.752 444.681 607.379 444.681 607.379Z" fill="black"/>
<path d="M487.574 428.573C487.574 428.573 489.214 444.756 487.574 452.151" stroke="#263238" stroke-width="1.10311" stroke-linecap="round" stroke-linejoin="round"/>
<path d="M536.436 449.978C536.454 444.775 537.055 439.59 538.229 434.52" stroke="#263238" stroke-width="1.10311" stroke-linecap="round" stroke-linejoin="round"/>
<path d="M540.765 358.622C540.765 358.622 550.568 370.916 550.053 380.217C549.538 389.518 548.814 400.535 549.062 411.324C549.31 422.112 531.725 444.717 522.685 446.719C513.645 448.72 505.864 449.235 500.085 443.459C494.306 437.684 488.527 429.66 481.013 419.367C473.499 409.074 475.291 386.488 475.291 386.488" stroke="#263238" stroke-width="1.10311" stroke-linecap="round" stroke-linejoin="round"/>
<path d="M517.154 395.084C516.557 398.462 516.302 401.891 516.391 405.32C516.195 408.209 517.094 411.067 518.909 413.325C519.996 414.43 521.56 415.326 521.77 416.851C521.764 417.537 521.574 418.21 521.218 418.797C520.862 419.384 520.354 419.864 519.748 420.187C518.525 420.803 517.346 421.504 516.22 422.283" stroke="#150035" stroke-width="1.10311" stroke-linecap="round" stroke-linejoin="round"/>
<path d="M501.649 423.465C501.649 423.465 502.774 430.765 512.558 432.29" stroke="#150035" stroke-width="1.10311" stroke-linecap="round" stroke-linejoin="round"/>
<path d="M502.66 400.65C502.66 402.766 501.744 404.462 500.619 404.462C499.494 404.462 498.578 402.766 498.578 400.65C498.578 398.534 499.494 396.838 500.619 396.838C501.744 396.838 502.66 398.553 502.66 400.65Z" fill="#150035"/>
<path d="M531.859 401.565C531.859 403.68 530.943 405.377 529.818 405.377C528.693 405.377 527.777 403.661 527.777 401.565C527.777 399.468 528.693 397.753 529.818 397.753C530.943 397.753 531.859 399.449 531.859 401.565Z" fill="#150035"/>
<path d="M525.966 392.32C525.966 392.32 535.502 382.79 543.493 393.426" stroke="#150035" stroke-width="2.20621" stroke-linecap="round" stroke-linejoin="round"/>
<path d="M505.883 392.511C505.883 392.511 499.856 385.764 490.358 392.511" stroke="#150035" stroke-width="2.20621" stroke-linecap="round" stroke-linejoin="round"/>
<path d="M488.299 437.57C488.299 437.57 494.115 453.581 507.103 458.136C520.091 462.691 537.332 439.076 537.332 439.076L536.436 436.007C536.436 436.007 525.126 450.683 512.558 448.186C499.99 445.689 487.574 428.649 487.574 428.649L488.299 437.57Z" fill="#150035"/>
<path d="M476.646 408.693C476.646 408.693 468.902 411.419 466.843 405.396C464.783 399.373 457.726 383.495 463.906 378.197C470.085 372.898 475.044 385.192 475.044 385.192" stroke="#263238" stroke-width="1.10311" stroke-linecap="round" stroke-linejoin="round"/>
<path d="M549.043 411.972C549.043 411.972 556.233 413.42 558.292 407.397C560.352 401.374 567.409 385.497 561.23 380.198C555.05 374.899 550.092 387.193 550.092 387.193" stroke="#263238" stroke-width="1.10311" stroke-linecap="round" stroke-linejoin="round"/>
<path d="M475.044 400.65C477.733 400.226 480.161 398.795 481.833 396.647C482.854 394.762 483.502 392.697 483.74 390.567C484.448 386.513 484.806 382.407 484.808 378.292C484.724 376.684 484.872 375.073 485.247 373.508C485.82 371.932 486.701 370.487 487.841 369.257C490.53 366.093 493.791 363.425 496.366 360.146C497.746 358.599 498.796 356.787 499.452 354.821C500.108 352.855 500.356 350.775 500.18 348.71C506.081 353.572 512.975 357.083 520.379 358.996C527.783 360.91 535.516 361.178 543.035 359.784C556.671 357.116 569.736 345.165 568.153 330.145C567.854 327.627 566.773 325.266 565.063 323.392C563.353 321.519 561.099 320.228 558.617 319.7C551.884 318.023 545.839 321.606 539.735 323.913C528.617 328.106 517.726 320.901 506.493 319.7C496.957 318.652 485.075 319.853 480.078 329.402C480.078 329.402 462.914 331.422 455.285 345.603C447.656 359.784 462.094 379.397 462.094 379.397C462.094 379.397 467.815 372.383 475.311 386.564L475.044 400.65Z" fill="#150035"/>
<path d="M541.948 355C541.948 355 537.485 378.254 549.138 389.518C549.138 389.518 551.694 382.523 554.268 380.808C556.125 376.681 556.911 372.153 556.554 367.643C556.198 363.132 554.71 358.784 552.228 355C543.607 341.467 541.948 355 541.948 355Z" fill="#150035"/>
<path opacity="0.2" d="M563.194 328.544C562.171 331.717 560.436 334.615 558.123 337.016C555.809 339.417 552.977 341.259 549.844 342.401C533.671 348.996 517.974 341.696 501.763 340.266C488.546 339.085 473.956 351.017 473.022 364.587" stroke="white" stroke-width="1.10311" stroke-linecap="round" stroke-linejoin="round"/>
<path opacity="0.2" d="M463.047 361.004C463.245 355.649 464.965 350.46 468.004 346.046C471.044 341.631 475.278 338.172 480.212 336.073" stroke="white" stroke-width="1.10311" stroke-linecap="round" stroke-linejoin="round"/>
<path d="M483.836 449.978C490.948 457.386 499.529 463.228 509.03 467.133C509.03 467.133 528.388 461.51 538.229 448.072" stroke="#263238" stroke-width="1.10311" stroke-linecap="round" stroke-linejoin="round"/>
<path d="M503.618 416.17C512.216 412.229 515.989 402.068 512.045 393.476C508.102 384.884 497.935 381.113 489.338 385.054C480.74 388.995 476.968 399.156 480.911 407.748C484.855 416.34 495.021 420.111 503.618 416.17Z" stroke="#150035" stroke-width="1.10311" stroke-linecap="round" stroke-linejoin="round"/>
<path d="M536.806 417.676C546.194 416.524 552.87 407.984 551.717 398.602C550.565 389.219 542.02 382.547 532.631 383.699C523.243 384.851 516.567 393.391 517.72 402.774C518.872 412.156 527.417 418.828 536.806 417.676Z" stroke="#150035" stroke-width="1.10311" stroke-linecap="round" stroke-linejoin="round"/>
<path d="M487.574 443.593C485.839 444.048 484.213 444.848 482.794 445.945C481.375 447.042 480.192 448.414 479.316 449.978C476.283 455.315 478.114 472.107 478.114 472.107C478.114 472.107 493.772 487.584 507.103 494.122L511.032 472.031L517.135 494.122C517.135 494.122 537.771 479.541 543.493 467.209C543.493 467.209 545.4 452.818 543.493 448.148C543.059 446.851 542.234 445.72 541.131 444.911C540.027 444.102 538.7 443.655 537.332 443.631" stroke="#263238" stroke-width="1.10311" stroke-linecap="round" stroke-linejoin="round"/>
<path d="M463.047 591.387C463.047 591.387 456.925 550.407 448.781 533.691" stroke="#263238" stroke-width="1.10311" stroke-linecap="round" stroke-linejoin="round"/>
<path d="M431.178 497.324C435.92 504.059 440.153 511.137 443.842 518.5" stroke="#263238" stroke-width="1.10311" stroke-linecap="round" stroke-linejoin="round"/>
<path d="M591.974 527.916C593.618 521.064 595.871 514.373 598.706 507.922" stroke="#263238" stroke-width="1.10311" stroke-linecap="round" stroke-linejoin="round"/>
<path d="M579.329 591.387C579.329 591.387 583.734 563.292 588.998 540.153" stroke="#263238" stroke-width="1.10311" stroke-linecap="round" stroke-linejoin="round"/>
<path d="M586.805 551.932C591.063 546.29 597.051 542.193 603.855 540.267" stroke="#263238" stroke-width="1.10311" stroke-linecap="round" stroke-linejoin="round"/>
<path d="M544.332 463.473C544.332 463.473 579.863 477.673 602.806 485.735C602.806 485.735 631.033 512.248 661.3 604.139C661.3 604.139 633.569 650.76 580.816 665.704" stroke="#263238" stroke-width="1.10311" stroke-linecap="round" stroke-linejoin="round"/>
<path d="M589.971 622.703L615.47 601.489C615.47 601.489 628.954 591.254 642.972 598.249" stroke="#263238" stroke-width="1.10311" stroke-linecap="round" stroke-linejoin="round"/>
<path d="M588.998 549.397C588.998 549.397 610.073 580.523 615.47 601.489" stroke="#263238" stroke-width="1.10311" stroke-linecap="round" stroke-linejoin="round"/>
<path d="M444.967 608.561L437.51 601.489C437.51 601.489 426.448 599.583 413.899 607.951" stroke="#263238" stroke-width="1.10311" stroke-linecap="round" stroke-linejoin="round"/>
<path d="M437.51 601.489C437.51 601.489 446.779 570.993 455.914 555.382" stroke="#263238" stroke-width="1.10311" stroke-linecap="round" stroke-linejoin="round"/>
<path d="M477.58 467.209C477.58 467.209 426.448 486.383 421.432 491.987C416.416 497.591 397.364 604.806 396.849 617.081C396.41 628.059 436.232 652.705 455.972 663.092" stroke="#263238" stroke-width="1.10311" stroke-linecap="round" stroke-linejoin="round"/>
<path d="M515.819 503.442C515.819 504.11 515.621 504.762 515.25 505.317C514.879 505.872 514.352 506.304 513.735 506.559C513.119 506.815 512.44 506.882 511.785 506.751C511.13 506.621 510.529 506.3 510.057 505.828C509.585 505.356 509.263 504.755 509.133 504.101C509.003 503.446 509.069 502.768 509.325 502.151C509.58 501.535 510.013 501.008 510.568 500.637C511.123 500.267 511.776 500.069 512.444 500.069C512.888 500.066 513.328 500.152 513.738 500.32C514.149 500.489 514.522 500.738 514.836 501.051C515.15 501.365 515.399 501.738 515.567 502.148C515.736 502.559 515.822 502.999 515.819 503.442V503.442Z" fill="#263238"/>
<path d="M574.98 683.03H458.642C457.918 683.03 457.225 682.742 456.713 682.231C456.202 681.72 455.914 681.027 455.914 680.304C455.914 679.581 456.202 678.888 456.713 678.377C457.225 677.866 457.918 677.578 458.642 677.578H574.98C575.704 677.578 576.397 677.866 576.909 678.377C577.42 678.888 577.708 679.581 577.708 680.304C577.708 681.027 577.42 681.72 576.909 682.231C576.397 682.742 575.704 683.03 574.98 683.03Z" fill="#263238"/>
<path d="M579.062 673.919L594.644 600.727C594.885 599.592 594.87 598.417 594.599 597.289C594.328 596.161 593.807 595.108 593.076 594.207C592.344 593.306 591.42 592.58 590.371 592.082C589.323 591.584 588.176 591.327 587.015 591.33H451.032C449.881 591.33 448.744 591.586 447.704 592.078C446.663 592.57 445.745 593.287 445.015 594.177C444.286 595.067 443.763 596.107 443.484 597.223C443.205 598.339 443.177 599.503 443.403 600.632L457.383 671.384C457.726 673.121 458.652 674.69 460.008 675.83C461.364 676.971 463.068 677.614 464.84 677.655L571.242 680.094C573.061 680.135 574.837 679.54 576.264 678.413C577.691 677.286 578.681 675.696 579.062 673.919Z" fill="#FFB000" stroke="#150035" stroke-width="3" stroke-linecap="round" stroke-linejoin="round"/>
<path d="M528.937 633.567C528.933 635.612 528.323 637.611 527.183 639.309C526.044 641.008 524.426 642.332 522.534 643.112C520.642 643.892 518.561 644.094 516.554 643.693C514.547 643.292 512.704 642.305 511.258 640.858C509.812 639.41 508.828 637.567 508.43 635.56C508.032 633.554 508.238 631.475 509.023 629.586C509.807 627.696 511.133 626.082 512.835 624.946C514.537 623.81 516.538 623.203 518.585 623.203C519.946 623.203 521.293 623.472 522.551 623.993C523.808 624.514 524.95 625.278 525.911 626.24C526.873 627.203 527.635 628.345 528.154 629.603C528.673 630.86 528.939 632.207 528.937 633.567Z" fill="white" stroke="black"/>
<path d="M550.778 598.325H566.932" stroke="#263238" stroke-width="1.10311" stroke-linecap="round" stroke-linejoin="round"/>
<path d="M473.632 598.325H534.948" stroke="#263238" stroke-width="1.10311" stroke-linecap="round" stroke-linejoin="round"/>
<path d="M579.005 750.163L578.215 750.338L577.927 751.094L566.004 782.367C565.956 782.355 565.906 782.343 565.855 782.33C564.91 782.096 563.514 781.752 561.714 781.313C558.112 780.436 552.89 779.179 546.401 777.664C533.425 774.634 515.383 770.566 495.122 766.417C452.687 757.729 409.161 746.582 386.595 707.009C383.89 702.25 382.226 696.868 383.412 691.918L383.413 691.915C384.91 685.611 389.775 681.48 395.989 678.721C402.203 675.961 409.522 674.69 415.44 673.999C422.879 673.195 430.355 672.778 437.837 672.75C438.874 672.75 440.46 672.612 442.203 672.455C442.335 672.443 442.468 672.431 442.603 672.419C444.282 672.268 446.145 672.1 447.985 671.992C449.978 671.876 451.893 671.833 453.475 671.95C454.265 672.009 454.937 672.104 455.476 672.238C456.03 672.375 456.351 672.529 456.511 672.647L456.518 672.653C461.209 676.073 466.215 679.038 471.468 681.509L471.494 681.521L471.52 681.532C472.173 681.81 473.164 681.971 474.247 682.088C475.392 682.212 476.84 682.302 478.531 682.366C481.917 682.494 486.361 682.517 491.479 682.464C501.718 682.357 514.724 681.945 527.505 681.443C540.289 680.941 552.86 680.35 562.234 679.883C566.921 679.65 570.81 679.448 573.527 679.305C574.885 679.233 575.951 679.176 576.677 679.137L577.506 679.092L577.718 679.08L577.772 679.077L577.786 679.076L577.789 679.076C577.79 679.076 577.79 679.076 577.708 677.578L577.79 679.076L578.694 679.026L579.071 678.204C580.745 674.557 581.812 670.663 582.232 666.676C589.881 662.966 602.186 659.512 614.562 657.31C627.373 655.03 639.942 654.147 647.283 655.569C659.027 657.845 668.198 662.385 674.079 668.023C679.944 673.645 682.496 680.296 681.28 686.993C681.008 688.493 680.044 690.485 678.301 692.907C676.578 695.301 674.176 698.002 671.181 700.908C665.191 706.717 656.922 713.255 647.214 719.688C627.787 732.561 602.764 744.907 579.005 750.163Z" fill="#150035" stroke="#150035" stroke-width="3"/>
<path d="M579.329 751.628C579.329 751.628 549.252 743.661 524.688 727.078C500.123 710.496 480.937 691.245 446.703 695.228" stroke="white" stroke-width="1.10311" stroke-linecap="round" stroke-linejoin="round"/>
<path d="M519.062 723.171C534.586 718.711 545.972 708.666 558.426 699.04C571.562 688.504 585.668 679.238 600.556 671.365" stroke="white" stroke-width="1.10311" stroke-linecap="round" stroke-linejoin="round"/>
<path d="M513.588 403.356H518.146" stroke="#150035" stroke-width="1.10311" stroke-linecap="round" stroke-linejoin="round"/>
</svg>
