<svg width="732" height="740" viewBox="0 0 732 740" fill="none" xmlns="http://www.w3.org/2000/svg">
<path d="M84.1466 285.226H75.0885C65.3683 285.226 56.0462 289.085 49.1729 295.955C42.2997 302.825 38.4384 312.143 38.4384 321.858V522.878C38.4384 532.593 42.2997 541.911 49.1729 548.781C56.0462 555.651 65.3683 559.51 75.0885 559.51H199.361C209.082 559.51 218.404 555.651 225.277 548.781C232.15 541.911 236.012 532.593 236.012 522.878" stroke="#150035" stroke-width="3" stroke-linecap="round" stroke-linejoin="round" stroke-dasharray="4.41 4.41"/>
<path d="M225.884 95.5485V55.8424C225.884 49.9013 228.242 44.2027 232.44 39.997C236.638 35.7913 242.334 33.4218 248.278 33.4086H409.887C415.839 33.4086 421.548 35.7721 425.757 39.9793C429.967 44.1865 432.331 49.8926 432.331 55.8424" stroke="#150035" stroke-width="3" stroke-linecap="round" stroke-linejoin="round" stroke-dasharray="4.41 4.41"/>
<path d="M689.356 669.792C689.356 671.846 687.846 674.337 683.725 677.149C679.687 679.905 673.603 682.642 665.576 685.292C649.548 690.584 626.249 695.381 597.331 699.419C539.526 707.492 459.605 712.493 371.281 712.493C282.958 712.493 203.036 707.492 145.231 699.419C116.313 695.381 93.0145 690.584 76.9867 685.292C68.9593 682.642 62.8748 679.905 58.8368 677.149C54.7167 674.337 53.2066 671.846 53.2066 669.792C53.2066 667.738 54.7167 665.247 58.8368 662.435C62.8748 659.679 68.9593 656.942 76.9867 654.291C93.0145 648.999 116.313 644.203 145.231 640.164C203.036 632.092 282.958 627.091 371.281 627.091C459.605 627.091 539.526 632.092 597.331 640.164C626.249 644.203 649.548 648.999 665.576 654.291C673.603 656.942 679.687 659.679 683.725 662.435C687.846 665.247 689.356 667.738 689.356 669.792Z" fill="#FFB000" stroke="#150035" stroke-width="4"/>
<path d="M673.005 148.819V449.596C673.005 459.428 669.099 468.858 662.145 475.812C655.19 482.766 645.758 486.675 635.921 486.679H106.641C96.8044 486.675 87.3718 482.766 80.4175 475.812C73.4633 468.858 69.5567 459.428 69.5567 449.596V148.819C69.5567 147.933 69.5567 147.148 69.6737 146.213C70.3252 136.856 74.5027 128.095 81.3635 121.696C88.2243 115.297 97.2577 111.738 106.641 111.735H635.921C645.315 111.739 654.358 115.308 661.22 121.721C668.083 128.133 672.253 136.911 672.888 146.279C672.972 147.081 673.005 147.95 673.005 148.819Z" fill="white" stroke="#150035" stroke-width="3" stroke-linecap="round" stroke-linejoin="round"/>
<path d="M87.606 160.111H656.845V437.953C656.845 447.168 653.182 456.005 646.663 462.521C640.144 469.037 631.302 472.698 622.083 472.698H122.384C113.165 472.698 104.323 469.037 97.8042 462.521C91.2851 456.005 87.6227 447.168 87.6227 437.953V160.111H87.606Z" fill="white"/>
<path d="M672.888 146.279H69.6732C70.3247 136.923 74.5023 128.161 81.3631 121.763C88.2238 115.364 97.2573 111.804 106.641 111.802H635.92C645.304 111.804 654.337 115.364 661.198 121.763C668.059 128.161 672.237 136.923 672.888 146.279Z" fill="#FFB000" stroke="#150035" stroke-width="3" stroke-miterlimit="10"/>
<path d="M143.793 128.974C143.793 130.272 143.408 131.541 142.686 132.621C141.964 133.701 140.939 134.542 139.738 135.039C138.538 135.536 137.218 135.666 135.944 135.412C134.67 135.159 133.499 134.534 132.581 133.616C131.662 132.698 131.037 131.528 130.783 130.255C130.53 128.981 130.66 127.661 131.157 126.462C131.654 125.262 132.496 124.237 133.576 123.515C134.656 122.794 135.926 122.409 137.225 122.409C138.967 122.409 140.637 123.101 141.869 124.332C143.101 125.563 143.793 127.233 143.793 128.974Z" fill="#263238"/>
<path d="M171.569 128.974C171.569 130.272 171.184 131.541 170.462 132.621C169.74 133.701 168.714 134.542 167.514 135.039C166.314 135.536 164.994 135.666 163.719 135.412C162.445 135.159 161.275 134.534 160.357 133.616C159.438 132.698 158.812 131.528 158.559 130.255C158.306 128.981 158.436 127.661 158.933 126.462C159.43 125.262 160.272 124.237 161.352 123.515C162.432 122.794 163.702 122.409 165.001 122.409C166.743 122.409 168.413 123.101 169.645 124.332C170.877 125.563 171.569 127.233 171.569 128.974V128.974Z" fill="#263238"/>
<path d="M192.777 135.539C196.404 135.539 199.345 132.599 199.345 128.974C199.345 125.348 196.404 122.409 192.777 122.409C189.149 122.409 186.209 125.348 186.209 128.974C186.209 132.599 189.149 135.539 192.777 135.539Z" fill="#263238"/>
<path d="M656.845 160.111V437.953C656.845 447.168 653.182 456.005 646.663 462.521C640.144 469.037 631.302 472.698 622.083 472.698H122.384C114.338 472.696 106.541 469.905 100.324 464.8C94.1068 459.694 89.8541 452.591 88.2912 444.702V444.601C87.8663 442.4 87.6537 440.162 87.6561 437.92V160.111H656.845Z" fill="#FFB000" stroke="#150035" stroke-width="3" stroke-miterlimit="10"/>
<path d="M656.31 203.074C653.873 201.706 651.281 200.635 648.589 199.883L645.464 185.935H632.194L629.102 199.883C626.395 200.622 623.79 201.693 621.348 203.074L609.365 195.407L599.989 204.744L607.527 216.721C606.147 219.164 605.075 221.767 604.335 224.472L590.38 227.563V240.826L604.335 243.949C605.066 246.668 606.139 249.284 607.527 251.734L599.856 263.794L609.248 273.165L621.298 265.498C623.735 266.881 626.334 267.958 629.035 268.705L632.144 282.637H645.363L648.472 268.705C651.165 267.951 653.758 266.874 656.193 265.498L656.811 265.899V202.74L656.31 203.074ZM638.862 251.516C635.47 251.516 632.154 250.511 629.334 248.627C626.514 246.743 624.316 244.065 623.019 240.933C621.722 237.8 621.383 234.353 622.046 231.028C622.709 227.703 624.344 224.649 626.744 222.253C629.143 219.857 632.2 218.226 635.527 217.567C638.855 216.907 642.303 217.249 645.436 218.549C648.569 219.848 651.245 222.048 653.127 224.868C655.01 227.689 656.012 231.004 656.009 234.395C656.009 236.644 655.565 238.872 654.704 240.951C653.842 243.029 652.578 244.917 650.986 246.507C649.393 248.098 647.503 249.358 645.423 250.218C643.343 251.077 641.113 251.519 638.862 251.516Z" fill="#150035"/>
<path d="M417.156 216.521V188.558L387.743 182.027C386.155 176.346 383.912 170.869 381.058 165.707L384.618 160.111H245.738L249.164 165.556C246.275 170.696 244.03 176.172 242.479 181.86L213.049 188.408V216.438L242.479 223.002C244.03 228.733 246.275 234.253 249.164 239.439L233.003 264.847L252.807 284.624L278.21 268.455C283.364 271.352 288.845 273.623 294.538 275.22L301.089 304.536H328.999L335.584 275.153C341.258 273.549 346.722 271.278 351.861 268.388L377.281 284.558L397.068 264.78L381.008 239.372C383.855 234.218 386.098 228.753 387.693 223.086L417.156 216.521ZM315.211 238.671C308.062 238.671 301.073 236.552 295.128 232.582C289.183 228.612 284.55 222.969 281.814 216.366C279.078 209.764 278.362 202.499 279.757 195.491C281.152 188.482 284.595 182.044 289.65 176.991C294.706 171.938 301.147 168.497 308.159 167.102C315.171 165.708 322.439 166.424 329.045 169.159C335.65 171.893 341.296 176.524 345.268 182.466C349.24 188.408 351.36 195.393 351.36 202.54C351.362 207.285 350.429 211.984 348.613 216.369C346.797 220.754 344.134 224.738 340.777 228.093C337.42 231.449 333.434 234.11 329.047 235.925C324.661 237.74 319.959 238.673 315.211 238.671Z" fill="#150035"/>
<path d="M231.533 408.537L232.719 386.337L209.706 379.855C208.638 375.293 207.057 370.866 204.993 366.659L218.898 347.148L203.991 330.628L183.167 342.321C179.187 339.818 174.93 337.783 170.482 336.257L166.505 312.671L144.311 311.652L137.893 334.72C133.321 335.745 128.888 337.316 124.691 339.398L105.187 325.516L88.6254 340.4L100.424 361.23C97.8949 365.191 95.8524 369.442 94.3411 373.892L87.6561 374.995V405.062L92.5361 406.432C93.5485 411.009 95.1143 415.446 97.1989 419.645L87.606 433.092L88.2411 444.601V444.702L98.1515 455.676L119.008 443.9C122.982 446.454 127.253 448.513 131.727 450.03L135.637 472.681L135.821 473.633L158.015 474.803L158.6 472.681L164.433 451.751C169.026 450.723 173.48 449.153 177.702 447.074L197.172 460.938L213.717 446.071L202.019 425.224C204.525 421.268 206.539 417.022 208.018 412.579L231.533 408.537ZM172.588 373.875C168.786 369.649 163.816 366.644 158.305 365.242C152.795 363.839 146.992 364.101 141.631 365.996C136.27 367.89 131.591 371.331 128.187 375.884C124.783 380.437 122.806 385.896 122.507 391.572C122.207 397.247 123.599 402.884 126.505 407.77C129.412 412.655 133.702 416.568 138.834 419.016C143.967 421.463 149.71 422.334 155.337 421.518C160.965 420.703 166.224 418.237 170.449 414.433C176.091 409.339 179.483 402.218 179.884 394.629C180.285 387.041 177.662 379.602 172.588 373.942V373.875Z" fill="#263238"/>
<path d="M409.051 375.446C409.91 372.008 410.364 368.482 410.405 364.939L426.365 356.587L421.953 340.4L403.937 341.235C402.112 338.21 399.942 335.407 397.469 332.883L402.8 315.661L388.261 307.309L376.094 320.572C372.661 319.744 369.147 319.296 365.616 319.236L357.259 303.283L341.082 307.676L341.934 325.7C338.907 327.524 336.103 329.693 333.578 332.165L316.331 326.836L307.975 341.352L321.345 353.496C320.48 356.921 320.037 360.438 320.024 363.97L304.031 372.322L308.443 388.492L326.492 387.64C328.281 390.68 330.442 393.486 332.926 395.992L327.562 413.131L342.118 421.483L354.218 408.32C357.655 409.185 361.185 409.628 364.73 409.639L373.086 425.609L389.264 421.215L388.545 405.814L388.428 403.175C391.497 401.369 394.337 399.198 396.884 396.71L414.115 402.056L421.234 389.628L422.437 387.523L409.051 375.446ZM370.83 385.268C366.681 386.411 362.286 386.298 358.202 384.941C354.118 383.585 350.529 381.047 347.891 377.649C345.252 374.25 343.683 370.146 343.381 365.855C343.08 361.564 344.06 357.28 346.198 353.547C348.335 349.814 351.534 346.799 355.388 344.886C359.242 342.972 363.578 342.245 367.846 342.798C372.114 343.351 376.121 345.158 379.36 347.991C382.599 350.823 384.923 354.553 386.038 358.708C387.524 364.245 386.759 370.145 383.91 375.12C381.061 380.096 376.359 383.744 370.83 385.268Z" fill="#150035"/>
<path d="M594.09 403.91L597.767 381.693L575.272 372.656C574.761 367.921 573.678 363.266 572.046 358.791L588.241 340.767L575.138 322.393L552.81 331.864C549.104 328.894 545.052 326.382 540.744 324.381L539.441 300.176L517.213 296.501L508.105 318.885C503.388 319.439 498.751 320.532 494.284 322.142L476.201 305.956L457.901 319.052L467.394 341.352C464.781 344.612 462.513 348.133 460.625 351.859C460.375 352.377 460.107 352.895 459.873 353.413L435.674 354.749L431.98 376.932L435.624 378.402L454.475 386.003C454.99 390.715 456.073 395.348 457.701 399.8L441.473 417.941L454.592 436.316L476.903 426.795C480.598 429.791 484.644 432.327 488.953 434.345L490.206 458.432L512.417 462.107L521.508 439.891C526.235 439.375 530.882 438.286 535.346 436.65L553.395 452.837L571.779 439.724L562.286 417.407C565.31 413.698 567.864 409.631 569.89 405.296L594.09 403.91ZM531.753 402.907C527.077 406.261 521.511 408.153 515.759 408.344C510.007 408.535 504.328 407.018 499.439 403.982C494.55 400.947 490.672 396.531 488.294 391.293C485.916 386.054 485.146 380.228 486.082 374.553C487.017 368.877 489.615 363.605 493.548 359.406C497.48 355.206 502.571 352.266 508.175 350.958C513.779 349.65 519.646 350.032 525.033 352.057C530.419 354.082 535.084 357.658 538.438 362.333C542.93 368.604 544.745 376.402 543.485 384.011C542.226 391.62 537.993 398.417 531.719 402.907H531.753Z" fill="#150035"/>
<path d="M292.867 239.439H118.089C105.989 239.439 96.1795 249.244 96.1795 261.339V503.2C96.1795 515.295 105.989 525.099 118.089 525.099H292.867C304.967 525.099 314.777 515.295 314.777 503.2V261.339C314.777 249.244 304.967 239.439 292.867 239.439Z" fill="white" stroke="#150035" stroke-width="3" stroke-miterlimit="10"/>
<path opacity="0.2" d="M292.215 239.823H117.438C105.337 239.823 95.5277 249.628 95.5277 261.723V503.584C95.5277 515.679 105.337 525.483 117.438 525.483H292.215C304.316 525.483 314.125 515.679 314.125 503.584V261.723C314.125 249.628 304.316 239.823 292.215 239.823Z" fill="black"/>
<path d="M335.116 282.92V524.782C335.118 527.659 334.553 530.509 333.453 533.167C332.353 535.826 330.739 538.243 328.704 540.278C326.67 542.313 324.254 543.928 321.594 545.029C318.935 546.131 316.084 546.698 313.206 546.698H138.428C135.551 546.696 132.702 546.127 130.045 545.024C127.388 543.922 124.974 542.307 122.941 540.272C120.908 538.237 119.296 535.821 118.197 533.164C117.097 530.506 116.533 527.658 116.535 524.782V282.92C116.535 277.115 118.841 271.548 122.946 267.441C127.052 263.335 132.62 261.026 138.428 261.021H313.206C319.017 261.021 324.59 263.328 328.698 267.435C332.807 271.542 335.116 277.112 335.116 282.92Z" fill="white" stroke="#150035" stroke-width="3" stroke-linecap="round" stroke-linejoin="round"/>
<path d="M335.116 282.92V295.866H116.535V282.92C116.535 277.115 118.841 271.548 122.946 267.441C127.052 263.335 132.62 261.026 138.428 261.021H313.206C319.017 261.021 324.59 263.328 328.698 267.435C332.807 271.542 335.116 277.112 335.116 282.92Z" fill="#FFB000" stroke="#150035" stroke-width="3" stroke-miterlimit="10"/>
<path d="M190.872 310.867H137.091V319.887H190.872V310.867Z" fill="#FFB000"/>
<path d="M190.872 391.699H137.091V400.719H190.872V391.699Z" fill="#FFB000"/>
<path d="M190.872 464.997H137.091V474.018H190.872V464.997Z" fill="#FFB000"/>
<path d="M289.825 333.2H137.091V339.815H289.825V333.2Z" fill="#150035"/>
<path d="M262.283 345.846H137.091V352.293H262.283V345.846Z" fill="#150035"/>
<path d="M278.678 358.29H137.091V364.738H278.678V358.29Z" fill="#150035"/>
<path d="M278.678 370.718H137.091V377.166H278.678V370.718Z" fill="#150035"/>
<path d="M289.825 406.499H137.091V413.114H289.825V406.499Z" fill="#150035"/>
<path d="M262.283 419.144H137.091V425.592H262.283V419.144Z" fill="#150035"/>
<path d="M278.678 431.589H137.091V438.036H278.678V431.589Z" fill="#150035"/>
<path d="M289.825 486.98H137.091V493.595H289.825V486.98Z" fill="#150035"/>
<path d="M262.283 499.642H137.091V506.09H262.283V499.642Z" fill="#150035"/>
<path d="M278.678 512.087H137.091V518.534H278.678V512.087Z" fill="#150035"/>
<path d="M581.472 93.3101V191.064C581.472 194.494 580.796 197.89 579.482 201.059C578.168 204.228 576.243 207.107 573.815 209.531C571.388 211.956 568.507 213.879 565.335 215.19C562.164 216.501 558.766 217.175 555.334 217.172H330.085C326.654 217.175 323.255 216.501 320.084 215.19C316.913 213.879 314.031 211.956 311.604 209.531C309.177 207.107 307.251 204.228 305.937 201.059C304.623 197.89 303.947 194.494 303.947 191.064V93.3101C303.952 86.3825 306.707 79.74 311.608 74.8414C316.509 69.9429 323.154 67.189 330.085 67.1846H555.334C562.266 67.1846 568.915 69.9371 573.816 74.8366C578.718 79.736 581.472 86.3812 581.472 93.3101Z" fill="white" stroke="#150035" stroke-width="3" stroke-miterlimit="10"/>
<path d="M581.472 93.3101V95.5484H303.947V93.3101C303.952 86.3825 306.707 79.74 311.608 74.8414C316.509 69.9429 323.154 67.189 330.085 67.1846H555.334C562.266 67.1846 568.915 69.9371 573.816 74.8366C578.718 79.736 581.472 86.3812 581.472 93.3101Z" fill="#FFB000" stroke="#150035" stroke-width="3" stroke-miterlimit="10"/>
<path d="M344.725 86.0437C344.165 86.6054 343.45 86.9882 342.672 87.1436C341.893 87.2991 341.086 87.2203 340.353 86.9171C339.62 86.614 338.993 86.1001 338.551 85.4406C338.11 84.7812 337.875 84.0057 337.875 83.2123C337.875 82.419 338.11 81.6435 338.551 80.984C338.993 80.3245 339.62 79.8107 340.353 79.5075C341.086 79.2044 341.893 79.1256 342.672 79.2811C343.45 79.4365 344.165 79.8193 344.725 80.381C345.471 81.1347 345.89 82.1521 345.89 83.2123C345.89 84.2726 345.471 85.29 344.725 86.0437V86.0437Z" fill="#263238"/>
<path d="M363.309 86.0437C362.749 86.6054 362.034 86.9882 361.256 87.1436C360.478 87.2991 359.671 87.2203 358.937 86.9171C358.204 86.614 357.577 86.1001 357.136 85.4406C356.694 84.7812 356.459 84.0057 356.459 83.2123C356.459 82.419 356.694 81.6435 357.136 80.984C357.577 80.3245 358.204 79.8107 358.937 79.5075C359.671 79.2044 360.478 79.1256 361.256 79.2811C362.034 79.4365 362.749 79.8193 363.309 80.381C364.055 81.1347 364.474 82.1521 364.474 83.2123C364.474 84.2726 364.055 85.29 363.309 86.0437V86.0437Z" fill="#263238"/>
<path d="M381.894 86.0437C381.333 86.6054 380.618 86.9882 379.84 87.1436C379.062 87.2991 378.255 87.2203 377.521 86.9171C376.788 86.614 376.161 86.1001 375.72 85.4406C375.278 84.7812 375.043 84.0057 375.043 83.2123C375.043 82.419 375.278 81.6435 375.72 80.984C376.161 80.3245 376.788 79.8107 377.521 79.5075C378.255 79.2044 379.062 79.1256 379.84 79.2811C380.618 79.4365 381.333 79.8193 381.894 80.381C382.64 81.1347 383.058 82.1521 383.058 83.2123C383.058 84.2726 382.64 85.29 381.894 86.0437Z" fill="#263238"/>
<path d="M412.36 113.522H321.646V191.899H412.36V113.522Z" stroke="#150035" stroke-width="2" stroke-linecap="round" stroke-linejoin="round" stroke-dasharray="4.41 4.41"/>
<path d="M530.767 113.522H426.365V119.035H530.767V113.522Z" fill="#150035"/>
<path d="M506.451 124.931H426.365V130.427H506.451V124.931Z" fill="#150035"/>
<path d="M545.607 136.29H426.365V141.853H545.607V136.29Z" fill="#150035"/>
<path d="M527.909 147.365H426.365V152.928H527.909V147.365Z" fill="#150035"/>
<path d="M589.06 335.923H538.003C531.976 335.923 527.09 340.807 527.09 346.831V376.782C527.09 382.806 531.976 387.69 538.003 387.69H589.06C595.087 387.69 599.973 382.806 599.973 376.782V346.831C599.973 340.807 595.087 335.923 589.06 335.923Z" fill="white" stroke="#150035" stroke-width="3" stroke-linecap="round" stroke-linejoin="round"/>
<path d="M550.604 351.492L536.583 360.278L549.602 371.804" stroke="#150035" stroke-width="3" stroke-linecap="round" stroke-linejoin="round"/>
<path d="M576.141 372.639L588.742 361.915L574.202 352.394" stroke="#150035" stroke-width="3" stroke-linecap="round" stroke-linejoin="round"/>
<path d="M557.423 379.254L567.768 346.814" stroke="#150035" stroke-width="3" stroke-linecap="round" stroke-linejoin="round"/>
<path d="M449.595 661.557C449.595 661.557 401.129 675.438 394.361 677.843C388.211 680.015 371.532 685.861 359.014 684.041C357.806 683.867 356.611 683.61 355.438 683.272C342.753 679.497 337.054 675.972 335.383 668.005C333.712 660.037 340.029 654.157 346.112 650.398C352.196 646.64 385.186 642.714 385.186 642.714L393.158 645.053L449.595 661.557Z" fill="#FFB000"/>
<path d="M359.014 684.041C357.806 683.867 356.611 683.61 355.438 683.272C342.753 679.497 337.054 675.972 335.383 668.005C333.712 660.037 340.029 654.157 346.112 650.398C352.196 646.64 385.186 642.714 385.186 642.714L393.158 645.053C385.938 648.394 359.064 650.214 353.198 653.589C347.332 656.963 344.508 663.311 347.967 671.963C349.822 676.474 354.769 680.9 359.014 684.041Z" fill="#150035"/>
<path d="M442.309 663.528C442.309 663.528 405.909 672.949 391.47 678.979C377.03 685.01 349.505 687.649 339.661 675.221C329.818 662.793 338.525 652.069 348.335 649.68C358.145 647.291 377.983 643.533 388.812 645.053" stroke="#150035" stroke-width="3" stroke-linecap="round" stroke-linejoin="round"/>
<path d="M359.733 683.389C359.733 683.389 341.216 673.233 347.366 659.001C351.912 648.511 376.612 650.782 388.846 645.053" stroke="#150035" stroke-width="1.10311" stroke-linecap="round" stroke-linejoin="round"/>
<path d="M597.215 686.296C596.714 691.307 594.959 696.001 589.945 698.958C586.603 700.929 581.856 702.098 575.055 702.031C558.058 701.814 526.104 689.67 526.104 689.67L496.189 673.133L511.748 648.527L516.01 641.846L527.007 644.318C527.007 644.318 536.115 649.48 545.273 653.589C554.432 657.698 576.676 658.6 584.514 664.898C592.352 671.195 598.067 678.044 597.215 686.296Z" fill="#FFB000"/>
<path d="M597.215 686.296C596.714 691.307 594.959 696.001 589.945 698.958C591.389 694.031 591.094 688.759 589.11 684.024C585.767 676.524 574.887 669.909 560.582 668.806C546.276 667.704 535.329 661.022 529.597 658.032C525.118 655.71 515.676 650.632 511.748 648.527L516.01 641.846L527.007 644.318C527.007 644.318 536.115 649.48 545.273 653.589C554.431 657.698 576.676 658.6 584.514 664.898C592.352 671.195 598.067 678.044 597.215 686.296Z" fill="#150035"/>
<path d="M502.824 677.777C524.357 690.288 548.157 698.412 572.848 701.68C578.297 702.332 584.631 702.432 588.274 698.34C589.243 697.158 589.965 695.793 590.395 694.326C590.826 692.86 590.957 691.322 590.781 689.804C590.129 682.12 583.661 676.039 576.575 672.983C569.489 669.926 561.685 669.224 554.147 667.537C546.651 665.848 539.405 663.198 532.588 659.652C527.174 656.829 521.943 653.405 515.976 652.136C510.01 650.866 502.907 652.403 499.715 657.615" stroke="#263238" stroke-width="1.10311" stroke-linecap="round" stroke-linejoin="round"/>
<path d="M586.269 700.428C589.069 699.088 591.517 697.112 593.417 694.658C595.318 692.205 596.618 689.341 597.215 686.296C598.301 679.063 594.173 671.78 588.374 667.336C582.575 662.893 575.305 660.788 568.136 659.302C560.966 657.815 553.629 656.813 546.761 654.09C536.282 649.981 525.937 641.896 515.007 644.786" stroke="#150035" stroke-width="1.10311" stroke-linecap="round" stroke-linejoin="round"/>
<path d="M414.381 512.496L414.38 512.496L414.376 512.496L414.355 512.494L414.27 512.488C414.193 512.483 414.078 512.475 413.93 512.466C413.633 512.448 413.202 512.425 412.672 512.405C411.61 512.366 410.161 512.34 408.603 512.394C407.04 512.448 405.401 512.581 403.95 512.849C402.461 513.125 401.336 513.515 400.673 513.981C400.167 514.341 399.724 515.065 399.431 516.241C399.144 517.393 399.053 518.773 399.076 520.151C399.098 521.517 399.232 522.816 399.361 523.779C399.426 524.258 399.489 524.65 399.535 524.919C399.558 525.053 399.577 525.157 399.59 525.226C399.596 525.26 399.601 525.285 399.604 525.302L399.608 525.319L399.608 525.322L399.608 525.322L399.609 525.322L400.486 529.684L397.146 526.743L390.812 521.164L390.013 520.459L390.414 519.473L406.325 480.368L408.125 475.942L409.177 480.603L415.962 510.671L416.411 512.657L414.381 512.496ZM414.381 512.496L414.381 512.496L414.381 512.496ZM527.36 537.209L527.776 538.928C527.558 539.04 527.128 539.207 526.602 539.081C526.026 538.944 525.693 538.547 525.533 538.248C525.388 537.975 525.339 537.709 525.318 537.548C525.295 537.369 525.292 537.193 525.296 537.039C525.31 536.458 525.445 535.663 525.612 534.821C525.784 533.951 526.033 532.844 526.304 531.636C526.554 530.522 526.824 529.323 527.07 528.147C527.603 525.602 528.075 522.967 528.223 520.73C528.298 519.611 528.287 518.641 528.181 517.859C528.071 517.054 527.877 516.586 527.697 516.347C527.115 515.574 526.175 514.935 524.955 514.431C523.745 513.931 522.362 513.606 521.022 513.4C519.688 513.196 518.442 513.117 517.527 513.089C517.07 513.075 516.7 513.074 516.447 513.077C516.371 513.077 516.306 513.078 516.252 513.08C516.216 513.08 516.185 513.081 516.159 513.082C516.127 513.083 516.104 513.083 516.089 513.084L516.074 513.084L516.072 513.084L516.071 513.084L527.36 537.209ZM527.36 537.209C527.519 537.049 527.74 536.841 528.013 536.594C528.088 536.68 528.142 536.764 528.18 536.834C528.278 537.018 528.293 537.16 528.294 537.166C528.295 537.176 528.295 537.18 528.295 537.175C528.295 537.169 528.294 537.149 528.295 537.114C528.297 537.022 528.307 536.905 528.324 536.759C528.386 536.856 528.44 536.966 528.483 537.092C528.598 537.425 528.566 537.71 528.537 537.854C528.507 538.008 528.459 538.121 528.432 538.179C528.349 538.358 528.253 538.451 528.309 538.387C528.363 538.325 528.499 538.187 528.747 537.956C529.225 537.511 529.97 536.86 530.913 536.058C532.79 534.462 535.381 532.326 538.007 530.183C540.632 528.041 543.285 525.898 545.282 524.287C545.781 523.884 546.24 523.515 546.646 523.187L546.81 523.056C547.149 522.783 547.448 522.541 547.701 522.337C547.832 522.232 547.951 522.136 548.056 522.051C548.186 521.946 548.296 521.857 548.384 521.785C548.463 521.721 548.527 521.669 548.572 521.632C548.593 521.615 548.615 521.596 548.634 521.58L548.644 521.572C548.653 521.564 548.665 521.554 548.678 521.542C548.68 521.54 548.686 521.535 548.693 521.528C548.705 521.518 548.72 521.503 548.738 521.486C548.755 521.468 548.802 521.418 548.83 521.385C548.893 521.304 549.121 520.837 549.18 520.422V520.205L549.118 519.996C547.301 513.868 541.41 502.314 536.07 492.439C533.382 487.468 530.806 482.871 528.902 479.518C527.95 477.841 527.165 476.474 526.619 475.526C526.493 475.308 526.38 475.112 526.28 474.939C526.163 474.737 526.064 474.567 525.986 474.432L525.819 474.145L525.776 474.072L525.766 474.053L525.763 474.048L525.762 474.047C525.762 474.047 525.762 474.047 524.466 474.803L527.36 537.209ZM485.428 401.153L535.723 420.272L586.191 522.506C563.491 559.487 521.167 575.342 509.119 579.212C508.086 579.543 507.282 579.786 506.739 579.945C506.612 579.983 506.5 580.016 506.402 580.044C506.29 580.076 506.197 580.103 506.124 580.123C506.113 580.126 506.103 580.129 506.093 580.132L506.071 580.133C505.935 580.136 505.733 580.141 505.468 580.148C504.937 580.161 504.157 580.178 503.155 580.199C501.152 580.239 498.267 580.29 494.742 580.328C487.689 580.405 478.077 580.435 467.835 580.246C457.589 580.057 446.73 579.65 437.177 578.856C427.579 578.058 419.447 576.88 414.571 575.197C404.644 571.773 390.904 563.347 379.265 554.997C373.464 550.835 368.23 546.724 364.303 543.315C362.339 541.609 360.718 540.093 359.522 538.844C358.277 537.542 357.636 536.674 357.448 536.243C356.981 535.173 356.802 533.492 356.95 531.121C357.095 528.79 357.54 525.983 358.16 522.78C358.607 520.468 359.148 517.939 359.721 515.26C360.714 510.619 361.803 505.53 362.667 500.339C362.89 498.997 363.152 497.393 363.448 495.577C364.964 486.286 367.388 471.427 370.244 457.521C371.951 449.207 373.806 441.273 375.702 435.096C376.651 432.005 377.599 429.393 378.528 427.407C379.491 425.349 380.326 424.209 380.938 423.776L380.944 423.772C382.543 422.628 385.765 420.981 389.926 419.084C394.046 417.207 398.966 415.137 403.87 413.147C413.662 409.173 423.345 405.534 426.374 404.402L427.313 404.073L428.414 403.686L428.31 402.524L428.31 402.524L428.31 402.524L428.31 402.523L428.31 402.521L428.309 402.505L428.303 402.437C428.298 402.375 428.291 402.281 428.283 402.159C428.266 401.913 428.245 401.552 428.226 401.099C428.189 400.191 428.162 398.917 428.207 397.46C428.296 394.556 428.664 391.065 429.704 388.293C431.692 385.148 434.903 383.912 437.818 383.491C439.284 383.279 440.626 383.284 441.604 383.342C442.091 383.371 442.482 383.413 442.746 383.447C442.878 383.464 442.978 383.479 443.043 383.489C443.075 383.494 443.098 383.498 443.111 383.5L443.123 383.502L443.124 383.503L443.125 383.503L443.125 383.503L443.126 383.503L443.579 383.586L444.003 383.399L444.003 383.399L444.003 383.398L444.003 383.398L444.009 383.396L444.036 383.384C444.06 383.373 444.098 383.357 444.148 383.335C444.249 383.292 444.401 383.228 444.599 383.147C444.994 382.985 445.571 382.756 446.29 382.491C447.729 381.96 449.723 381.29 451.948 380.73C454.178 380.169 456.604 379.728 458.916 379.636C461.242 379.544 463.344 379.81 464.998 380.568C469.16 382.475 473.349 382.68 476.638 382.84L476.725 382.845C478.423 382.928 479.803 382.999 480.933 383.233C482.047 383.464 482.697 383.812 483.094 384.282L483.101 384.29C483.355 384.586 483.63 385.151 483.855 386.052C484.072 386.926 484.212 387.987 484.287 389.15C484.437 391.476 484.321 394.051 484.165 396.042L484.164 396.047C484.091 397.029 484.009 397.846 483.946 398.416C483.914 398.701 483.887 398.924 483.869 399.074C483.859 399.149 483.852 399.206 483.847 399.243L483.842 399.284L483.84 399.294L483.84 399.295L483.84 399.296L483.679 400.463L484.776 400.895L485.411 401.146L485.419 401.149L485.428 401.153Z" fill="#FFB000" stroke="#150035" stroke-width="3"/>
<path d="M441.005 297.036L414.867 324.765C414.867 324.765 411.274 327.955 412.694 335.99C414.115 344.025 417.457 351.024 419.981 351.492C421.979 351.841 424.003 352.02 426.031 352.026C426.031 352.026 431.629 364.154 435.607 368.914C435.607 368.914 436.977 387.64 436.242 392.835C436.242 392.835 445.634 401.037 454.475 402.072C463.316 403.108 476.97 389.578 476.97 389.578L480.312 373.007C480.312 373.007 488.334 360.846 488.869 357.606C489.404 354.365 493.081 355.2 494.886 353.596C496.69 351.993 500.852 344.86 501.57 338.112C502.289 331.363 502.306 323.612 494.468 325.884C487.666 324.063 491.927 309.698 491.927 309.698L479.978 299.174L441.005 297.036Z" fill="white"/>
<path opacity="0.5" d="M485.961 399.75C485.567 400.783 485.115 401.792 484.607 402.774C480.296 410.892 461.511 426.377 461.511 426.377L455.829 408.921L452.72 426.377C446.453 423.638 427.334 407.084 427.334 407.084C427.334 407.084 426.682 405.53 425.897 403.108L426.85 402.774C426.85 402.774 426.047 393.737 428.387 387.74C432.966 380.223 443.428 382.144 443.428 382.144C443.428 382.144 457.851 375.746 465.656 379.321C473.46 382.896 481.449 380.123 484.273 383.43C487.098 386.738 485.359 399.567 485.359 399.567L485.961 399.75Z" fill="white"/>
<path opacity="0.2" d="M536.583 418.994L485.961 399.75L485.326 399.5C485.326 399.5 485.51 398.164 485.66 396.159L484.607 402.724L477.12 412.88C485.124 415.825 492.938 419.262 500.517 423.17C504.146 425.113 507.107 428.101 509.014 431.747C510.921 435.394 511.688 439.529 511.213 443.616L501.888 523.379L498.061 568.664L509.609 580.641C521.776 576.732 564.944 560.596 587.856 522.711C587.856 522.778 565.662 450.064 536.583 418.994ZM527.09 537.594C525.335 538.496 532.104 519.704 528.895 515.444C525.686 511.185 516.01 511.586 516.01 511.586L516.829 506.457L522.561 477.058L524.466 474.803C524.466 474.803 544.153 508.529 547.68 520.422C547.68 520.456 526.221 537.594 527.09 537.594Z" fill="black"/>
<path opacity="0.2" d="M417.858 515.444L409.987 489.152C409.987 489.152 395.865 441.027 386.189 429.167L388.729 463.01C388.729 463.01 380.373 503.434 372.735 515.444C365.098 527.455 363.393 530.478 372.735 530.478C382.077 530.478 404.823 548.586 404.823 548.586L403.068 533.552L417.858 515.444ZM398.021 525.617L391.687 520.038L407.597 480.933L414.382 511.001C414.382 511.001 403.486 510.183 399.759 512.805C396.032 515.428 398.021 525.617 398.021 525.617Z" fill="black"/>
<path d="M435.607 368.914C435.607 368.914 437.044 383.096 435.607 389.578" stroke="#263238" stroke-width="1.10311" stroke-linecap="round" stroke-linejoin="round"/>
<path d="M478.424 387.673C478.439 383.113 478.966 378.569 479.995 374.126" stroke="#263238" stroke-width="1.10311" stroke-linecap="round" stroke-linejoin="round"/>
<path d="M482.218 307.61C482.218 307.61 490.808 318.384 490.356 326.536C489.905 334.687 489.27 344.342 489.487 353.797C489.705 363.252 474.296 383.063 466.374 384.817C458.453 386.571 451.634 387.022 446.57 381.96C441.506 376.899 436.442 369.866 429.858 360.846C423.273 351.826 424.844 332.031 424.844 332.031" stroke="#263238" stroke-width="1.10311" stroke-linecap="round" stroke-linejoin="round"/>
<path d="M461.528 339.565C461.004 342.525 460.78 345.53 460.859 348.535C460.687 351.068 461.474 353.572 463.065 355.551C464.018 356.52 465.388 357.305 465.572 358.641C465.567 359.243 465.4 359.832 465.089 360.346C464.777 360.861 464.332 361.282 463.8 361.564C462.729 362.105 461.696 362.719 460.709 363.402" stroke="#150035" stroke-width="1.10311" stroke-linecap="round" stroke-linejoin="round"/>
<path d="M447.941 364.438C447.941 364.438 448.927 370.835 457.5 372.172" stroke="#150035" stroke-width="1.10311" stroke-linecap="round" stroke-linejoin="round"/>
<path d="M448.826 344.443C448.826 346.297 448.024 347.783 447.038 347.783C446.052 347.783 445.25 346.297 445.25 344.443C445.25 342.588 446.052 341.102 447.038 341.102C448.024 341.102 448.826 342.605 448.826 344.443Z" fill="#150035"/>
<path d="M474.413 345.244C474.413 347.099 473.611 348.585 472.625 348.585C471.639 348.585 470.836 347.082 470.836 345.244C470.836 343.407 471.639 341.904 472.625 341.904C473.611 341.904 474.413 343.39 474.413 345.244Z" fill="#150035"/>
<path d="M469.249 337.143C469.249 337.143 477.605 328.791 484.607 338.112" stroke="#150035" stroke-width="2.20621" stroke-linecap="round" stroke-linejoin="round"/>
<path d="M451.651 337.31C451.651 337.31 446.37 331.396 438.047 337.31" stroke="#150035" stroke-width="2.20621" stroke-linecap="round" stroke-linejoin="round"/>
<path d="M436.242 376.799C436.242 376.799 441.339 390.83 452.72 394.823C464.101 398.815 479.209 378.118 479.209 378.118L478.424 375.429C478.424 375.429 468.513 388.291 457.5 386.103C446.487 383.915 435.607 368.981 435.607 368.981L436.242 376.799Z" fill="#150035"/>
<path d="M426.031 351.492C426.031 351.492 419.246 353.88 417.441 348.602C415.636 343.323 409.452 329.409 414.867 324.765C420.282 320.121 424.627 330.895 424.627 330.895" stroke="#263238" stroke-width="1.10311" stroke-linecap="round" stroke-linejoin="round"/>
<path d="M489.471 354.365C489.471 354.365 495.771 355.634 497.576 350.356C499.381 345.077 505.565 331.163 500.15 326.519C494.735 321.875 490.39 332.649 490.39 332.649" stroke="#263238" stroke-width="1.10311" stroke-linecap="round" stroke-linejoin="round"/>
<path d="M424.627 344.443C426.984 344.071 429.111 342.817 430.576 340.935C431.471 339.282 432.039 337.473 432.248 335.606C432.868 332.054 433.181 328.454 433.184 324.848C433.11 323.44 433.239 322.028 433.568 320.656C434.07 319.275 434.843 318.009 435.841 316.931C438.197 314.158 441.055 311.819 443.311 308.946C444.521 307.59 445.441 306.002 446.015 304.279C446.59 302.556 446.807 300.733 446.654 298.923C451.824 303.184 457.866 306.261 464.353 307.938C470.841 309.615 477.618 309.85 484.206 308.629C496.156 306.29 507.604 295.816 506.216 282.653C505.954 280.446 505.008 278.377 503.509 276.735C502.01 275.093 500.035 273.962 497.86 273.499C491.961 272.029 486.663 275.17 481.315 277.191C471.572 280.866 462.029 274.552 452.186 273.499C443.829 272.581 433.418 273.633 429.039 282.002C429.039 282.002 413.998 283.773 407.313 296.201C400.628 308.629 413.279 325.817 413.279 325.817C413.279 325.817 418.293 319.67 424.861 332.098L424.627 344.443Z" fill="#150035"/>
<path d="M483.254 304.436C483.254 304.436 479.343 324.815 489.554 334.687C489.554 334.687 491.794 328.557 494.05 327.053C495.677 323.437 496.365 319.469 496.053 315.516C495.74 311.563 494.437 307.752 492.262 304.436C484.708 292.576 483.254 304.436 483.254 304.436Z" fill="#150035"/>
<path opacity="0.2" d="M501.871 281.25C500.975 284.031 499.455 286.57 497.427 288.675C495.4 290.779 492.919 292.393 490.173 293.394C476.001 299.174 462.246 292.776 448.041 291.523C436.459 290.488 423.674 300.945 422.855 312.838" stroke="white" stroke-width="1.10311" stroke-linecap="round" stroke-linejoin="round"/>
<path opacity="0.2" d="M414.115 309.698C414.288 305.004 415.795 300.457 418.458 296.588C421.122 292.719 424.832 289.688 429.156 287.848" stroke="white" stroke-width="1.10311" stroke-linecap="round" stroke-linejoin="round"/>
<path d="M432.331 387.673C438.564 394.165 446.083 399.286 454.408 402.707C454.408 402.707 471.371 397.779 479.995 386.003" stroke="#263238" stroke-width="1.10311" stroke-linecap="round" stroke-linejoin="round"/>
<path d="M449.666 358.044C457.2 354.59 460.506 345.686 457.051 338.156C453.595 330.625 444.686 327.321 437.153 330.775C429.619 334.229 426.313 343.133 429.768 350.663C433.224 358.194 442.133 361.498 449.666 358.044Z" stroke="#150035" stroke-width="1.10311" stroke-linecap="round" stroke-linejoin="round"/>
<path d="M478.748 359.364C486.974 358.355 492.825 350.87 491.815 342.648C490.804 334.425 483.317 328.577 475.09 329.587C466.863 330.597 461.013 338.081 462.023 346.304C463.033 354.527 470.521 360.374 478.748 359.364Z" stroke="#150035" stroke-width="1.10311" stroke-linecap="round" stroke-linejoin="round"/>
<path d="M435.607 382.077C434.086 382.476 432.662 383.177 431.419 384.139C430.175 385.1 429.139 386.302 428.37 387.673C425.713 392.35 427.318 407.067 427.318 407.067C427.318 407.067 441.038 420.631 452.72 426.36L456.163 407L461.511 426.36C461.511 426.36 479.594 413.582 484.607 402.774C484.607 402.774 486.279 390.162 484.607 386.07C484.227 384.933 483.504 383.942 482.538 383.233C481.571 382.524 480.408 382.132 479.209 382.111" stroke="#263238" stroke-width="1.10311" stroke-linecap="round" stroke-linejoin="round"/>
<path d="M414.115 511.602C414.115 511.602 408.75 475.688 401.614 461.038" stroke="#263238" stroke-width="1.10311" stroke-linecap="round" stroke-linejoin="round"/>
<path d="M386.189 429.167C390.343 435.069 394.053 441.272 397.285 447.725" stroke="#263238" stroke-width="1.10311" stroke-linecap="round" stroke-linejoin="round"/>
<path d="M527.09 455.977C528.531 449.972 530.505 444.108 532.99 438.454" stroke="#263238" stroke-width="1.10311" stroke-linecap="round" stroke-linejoin="round"/>
<path d="M516.01 511.602C516.01 511.602 519.87 486.98 524.483 466.701" stroke="#263238" stroke-width="1.10311" stroke-linecap="round" stroke-linejoin="round"/>
<path d="M522.561 477.025C526.293 472.079 531.539 468.489 537.502 466.802" stroke="#263238" stroke-width="1.10311" stroke-linecap="round" stroke-linejoin="round"/>
<path d="M485.343 399.5C485.343 399.5 516.478 411.945 536.583 419.01C536.583 419.01 561.317 442.246 587.839 522.778C587.839 522.778 563.54 563.636 517.313 576.732" stroke="#263238" stroke-width="1.10311" stroke-linecap="round" stroke-linejoin="round"/>
<path d="M525.335 539.048L547.68 520.456C547.68 520.456 559.495 511.485 571.779 517.616" stroke="#263238" stroke-width="1.10311" stroke-linecap="round" stroke-linejoin="round"/>
<path d="M524.483 474.803C524.483 474.803 542.95 502.081 547.68 520.456" stroke="#263238" stroke-width="1.10311" stroke-linecap="round" stroke-linejoin="round"/>
<path d="M398.272 526.653L391.737 520.456C391.737 520.456 382.044 518.785 371.047 526.118" stroke="#263238" stroke-width="1.10311" stroke-linecap="round" stroke-linejoin="round"/>
<path d="M391.737 520.456C391.737 520.456 399.859 493.729 407.864 480.048" stroke="#263238" stroke-width="1.10311" stroke-linecap="round" stroke-linejoin="round"/>
<path d="M426.85 402.774C426.85 402.774 382.044 419.578 377.648 424.489C373.253 429.4 356.558 523.362 356.106 534.12C355.722 543.741 390.617 565.34 407.915 574.444" stroke="#263238" stroke-width="1.10311" stroke-linecap="round" stroke-linejoin="round"/>
<path d="M460.358 434.529C460.358 435.113 460.184 435.685 459.859 436.171C459.534 436.658 459.072 437.037 458.532 437.26C457.991 437.484 457.396 437.543 456.823 437.429C456.249 437.314 455.722 437.033 455.308 436.619C454.894 436.206 454.613 435.679 454.498 435.106C454.384 434.532 454.443 433.938 454.667 433.397C454.891 432.857 455.27 432.395 455.756 432.07C456.243 431.745 456.815 431.572 457.4 431.572C457.789 431.57 458.174 431.645 458.534 431.793C458.894 431.94 459.221 432.158 459.496 432.433C459.771 432.708 459.989 433.035 460.137 433.395C460.285 433.754 460.36 434.14 460.358 434.529V434.529Z" fill="#263238"/>
<path d="M512.2 591.917H410.254C409.62 591.917 409.013 591.665 408.564 591.217C408.116 590.769 407.864 590.161 407.864 589.528C407.864 588.894 408.116 588.287 408.564 587.839C409.013 587.391 409.62 587.139 410.254 587.139H512.2C512.833 587.139 513.441 587.391 513.889 587.839C514.338 588.287 514.589 588.894 514.589 589.528C514.589 590.161 514.338 590.769 513.889 591.217C513.441 591.665 512.833 591.917 512.2 591.917Z" fill="#263238"/>
<path d="M515.776 583.932L529.43 519.787C529.642 518.793 529.628 517.764 529.391 516.775C529.153 515.786 528.697 514.863 528.056 514.074C527.415 513.284 526.605 512.648 525.686 512.211C524.767 511.775 523.762 511.55 522.745 511.552H403.586C402.577 511.552 401.581 511.776 400.67 512.208C399.758 512.639 398.953 513.267 398.314 514.047C397.674 514.827 397.216 515.739 396.972 516.717C396.727 517.695 396.703 518.715 396.901 519.704L409.151 581.71C409.452 583.233 410.263 584.608 411.451 585.607C412.639 586.607 414.133 587.171 415.686 587.206L508.924 589.344C510.517 589.379 512.074 588.858 513.324 587.87C514.575 586.883 515.442 585.49 515.776 583.932Z" fill="#FFB000" stroke="#150035" stroke-width="3" stroke-linecap="round" stroke-linejoin="round"/>
<path d="M471.79 548.568C471.787 550.348 471.256 552.088 470.264 553.567C469.273 555.045 467.864 556.197 466.218 556.876C464.571 557.555 462.76 557.731 461.014 557.382C459.267 557.033 457.663 556.174 456.405 554.914C455.147 553.654 454.29 552.049 453.944 550.303C453.597 548.557 453.777 546.747 454.459 545.103C455.141 543.458 456.296 542.053 457.777 541.064C459.259 540.075 461 539.548 462.781 539.548C463.966 539.548 465.138 539.781 466.233 540.235C467.327 540.688 468.321 541.353 469.157 542.191C469.994 543.029 470.657 544.023 471.109 545.117C471.561 546.212 471.793 547.384 471.79 548.568Z" fill="white" stroke="black"/>
<path d="M490.992 517.683H505.147" stroke="#263238" stroke-width="1.10311" stroke-linecap="round" stroke-linejoin="round"/>
<path d="M423.39 517.683H477.12" stroke="#263238" stroke-width="1.10311" stroke-linecap="round" stroke-linejoin="round"/>
<path d="M515.686 650.571L514.896 650.745L514.608 651.501L504.219 678.755C503.391 678.55 502.178 678.251 500.618 677.871C497.462 677.102 492.885 676.001 487.198 674.673C475.826 672.016 460.015 668.451 442.258 664.815C405.064 657.198 367.009 647.439 347.282 612.839C344.922 608.686 343.489 604.021 344.513 599.75L344.513 599.747C345.806 594.302 350.009 590.716 355.428 588.31C360.847 585.903 367.238 584.791 372.418 584.186C378.93 583.483 385.474 583.118 392.024 583.093C392.943 583.093 394.343 582.971 395.866 582.834C395.982 582.823 396.098 582.813 396.216 582.802C397.688 582.67 399.317 582.523 400.927 582.429C402.671 582.327 404.339 582.29 405.713 582.392C406.399 582.442 406.977 582.525 407.436 582.639C407.91 582.756 408.164 582.884 408.277 582.967L408.284 582.972C412.404 585.976 416.801 588.581 421.415 590.752L421.44 590.764L421.466 590.775C422.067 591.03 422.961 591.174 423.909 591.276C424.919 591.385 426.192 591.464 427.676 591.52C430.648 591.633 434.545 591.653 439.03 591.606C448.006 591.512 459.404 591.151 470.605 590.711C481.808 590.272 492.825 589.753 501.039 589.344C505.147 589.14 508.555 588.963 510.936 588.837C512.126 588.775 513.06 588.724 513.696 588.69L514.423 588.651L514.609 588.64L514.656 588.638L514.668 588.637L514.671 588.637C514.672 588.637 514.672 588.637 514.589 587.139L514.672 588.637L515.575 588.587L515.953 587.765C517.413 584.581 518.35 581.185 518.727 577.706C525.413 574.483 536.128 571.479 546.917 569.558C558.139 567.561 569.125 566.793 575.521 568.032C585.788 570.022 593.788 573.988 598.909 578.899C604.014 583.793 606.217 589.562 605.165 595.357C604.934 596.631 604.108 598.35 602.587 600.465C601.085 602.552 598.988 604.91 596.368 607.452C591.13 612.533 583.893 618.256 575.394 623.889C558.383 635.163 536.477 645.97 515.686 650.571Z" fill="#150035" stroke="#150035" stroke-width="3"/>
<path d="M516.01 652.035C516.01 652.035 489.655 645.053 468.129 630.52C446.604 615.987 429.791 599.116 399.792 602.607" stroke="white" stroke-width="1.10311" stroke-linecap="round" stroke-linejoin="round"/>
<path d="M463.199 627.096C476.803 623.187 486.78 614.384 497.693 605.948C509.204 596.715 521.565 588.593 534.611 581.694" stroke="white" stroke-width="1.10311" stroke-linecap="round" stroke-linejoin="round"/>
<path d="M458.402 346.815H462.397" stroke="#150035" stroke-width="1.10311" stroke-linecap="round" stroke-linejoin="round"/>
</svg>
