<svg width="414" height="444" viewBox="0 0 414 444" fill="none" xmlns="http://www.w3.org/2000/svg">
<path d="M34.35 165.75H28.93C23.1138 165.75 17.5358 168.06 13.4231 172.173C9.31048 176.286 7 181.864 7 187.68V308.02C7 313.836 9.31048 319.414 13.4231 323.527C17.5358 327.64 23.1138 329.95 28.93 329.95H103.29C109.106 329.95 114.684 327.64 118.797 323.527C122.91 319.414 125.22 313.836 125.22 308.02" stroke="#150035" stroke-width="3" stroke-linecap="round" stroke-linejoin="round" stroke-dasharray="4.41 4.41"/>
<path d="M119.16 52.2V28.43C119.16 24.8733 120.571 21.4619 123.083 18.9441C125.595 16.4264 129.003 15.0079 132.56 15H229.26C232.822 15 236.238 16.4149 238.756 18.9336C241.275 21.4522 242.69 24.8681 242.69 28.43" stroke="#150035" stroke-width="3" stroke-linecap="round" stroke-linejoin="round" stroke-dasharray="4.41 4.41"/>
<path d="M395.68 395.97C395.68 396.786 395.069 398.068 392.661 399.711C390.336 401.299 386.777 402.91 382.002 404.487C372.48 407.633 358.594 410.496 341.308 412.911C306.767 417.738 258.984 420.73 206.16 420.73C153.336 420.73 105.553 417.738 71.0117 412.911C53.7262 410.496 39.8405 407.633 30.318 404.487C25.5432 402.91 21.9844 401.299 19.6588 399.711C17.2514 398.068 16.64 396.786 16.64 395.97C16.64 395.154 17.2514 393.872 19.6588 392.229C21.9844 390.641 25.5432 389.03 30.318 387.453C39.8405 384.307 53.7262 381.444 71.0117 379.029C105.553 374.202 153.336 371.21 206.16 371.21C258.984 371.21 306.767 374.202 341.308 379.029C358.594 381.444 372.48 384.307 382.002 387.453C386.777 389.03 390.336 390.641 392.661 392.229C395.069 393.872 395.68 395.154 395.68 395.97Z" fill="#FFB000" stroke="#150035" stroke-width="4"/>
<path d="M386.7 84.09V264.15C386.7 270.036 384.362 275.681 380.201 279.844C376.04 284.007 370.396 286.347 364.51 286.35H47.81C41.9239 286.347 36.2798 284.007 32.1187 279.844C27.9575 275.681 25.62 270.036 25.62 264.15V84.09C25.62 83.56 25.62 83.09 25.69 82.53C26.0798 76.9288 28.5795 71.6838 32.6847 67.8533C36.79 64.0227 42.1952 61.8917 47.81 61.89H364.51C370.131 61.8924 375.542 64.029 379.648 67.8679C383.754 71.7068 386.25 76.9616 386.63 82.57C386.68 83.05 386.7 83.57 386.7 84.09Z" fill="white" stroke="#150035" stroke-width="3" stroke-linecap="round" stroke-linejoin="round"/>
<path d="M36.42 90.85H377.03V257.18C377.03 262.697 374.839 267.987 370.938 271.888C367.037 275.789 361.747 277.98 356.23 277.98H57.23C51.7135 277.98 46.423 275.789 42.5222 271.888C38.6215 267.987 36.43 262.697 36.43 257.18V90.85H36.42Z" fill="white"/>
<path d="M386.63 82.57H25.6899C26.0798 76.9688 28.5795 71.7238 32.6847 67.8933C36.7899 64.0627 42.1951 61.9317 47.8099 61.93H364.51C370.125 61.9317 375.53 64.0627 379.635 67.8933C383.74 71.7238 386.24 76.9688 386.63 82.57Z" fill="#FFB000" stroke="#150035" stroke-width="3" stroke-miterlimit="10"/>
<path d="M70.0399 72.21C70.0399 72.9873 69.8094 73.7471 69.3776 74.3934C68.9458 75.0397 68.332 75.5434 67.6139 75.8409C66.8958 76.1383 66.1056 76.2161 65.3432 76.0645C64.5809 75.9129 63.8806 75.5386 63.331 74.9889C62.7814 74.4393 62.4071 73.7391 62.2554 72.9767C62.1038 72.2144 62.1816 71.4242 62.4791 70.7061C62.7765 69.988 63.2803 69.3742 63.9265 68.9423C64.5728 68.5105 65.3327 68.28 66.1099 68.28C67.1522 68.28 68.1518 68.6941 68.8889 69.4311C69.6259 70.1681 70.0399 71.1677 70.0399 72.21Z" fill="#263238"/>
<path d="M86.66 72.21C86.66 72.9873 86.4296 73.7471 85.9977 74.3934C85.5659 75.0397 84.9521 75.5434 84.234 75.8409C83.5159 76.1383 82.7257 76.2161 81.9633 76.0645C81.201 75.9129 80.5007 75.5386 79.9511 74.9889C79.4015 74.4393 79.0272 73.7391 78.8756 72.9767C78.7239 72.2144 78.8018 71.4242 79.0992 70.7061C79.3967 69.988 79.9004 69.3742 80.5467 68.9423C81.1929 68.5105 81.9528 68.28 82.73 68.28C83.7723 68.28 84.772 68.6941 85.509 69.4311C86.246 70.1681 86.66 71.1677 86.66 72.21Z" fill="#263238"/>
<path d="M99.3499 76.14C101.52 76.14 103.28 74.3805 103.28 72.21C103.28 70.0395 101.52 68.28 99.3499 68.28C97.1795 68.28 95.4199 70.0395 95.4199 72.21C95.4199 74.3805 97.1795 76.14 99.3499 76.14Z" fill="#263238"/>
<path d="M377.03 90.85V257.18C377.03 262.697 374.839 267.987 370.938 271.888C367.037 275.789 361.746 277.98 356.23 277.98H57.23C52.4153 277.979 47.7501 276.308 44.0299 273.252C40.3098 270.195 37.7651 265.943 36.83 261.22V261.16C36.5757 259.842 36.4485 258.502 36.45 257.16V90.85H377.03Z" fill="#FFB000" stroke="#150035" stroke-width="3" stroke-miterlimit="10"/>
<path d="M376.71 116.57C375.252 115.751 373.701 115.11 372.09 114.66L370.22 106.31H362.28L360.43 114.66C358.81 115.102 357.252 115.743 355.79 116.57L348.62 111.98L343.01 117.57L347.52 124.74C346.694 126.202 346.053 127.76 345.61 129.38L337.26 131.23V139.17L345.61 141.04C346.048 142.668 346.69 144.233 347.52 145.7L342.93 152.92L348.55 158.53L355.76 153.94C357.219 154.768 358.774 155.413 360.39 155.86L362.25 164.2H370.16L372.02 155.86C373.632 155.408 375.183 154.764 376.64 153.94L377.01 154.18V116.37L376.71 116.57ZM366.27 145.57C364.24 145.57 362.256 144.968 360.569 143.84C358.881 142.712 357.566 141.109 356.79 139.234C356.014 137.359 355.811 135.295 356.208 133.305C356.605 131.314 357.583 129.486 359.019 128.052C360.455 126.617 362.284 125.641 364.275 125.246C366.265 124.851 368.329 125.056 370.203 125.834C372.078 126.612 373.68 127.929 374.806 129.617C375.932 131.306 376.532 133.29 376.53 135.32C376.53 136.667 376.265 138.001 375.749 139.245C375.233 140.489 374.477 141.619 373.524 142.571C372.571 143.523 371.44 144.278 370.196 144.793C368.951 145.307 367.617 145.571 366.27 145.57Z" fill="#150035"/>
<path d="M233.61 124.62V107.88L216.01 103.97C215.06 100.569 213.718 97.2905 212.01 94.2L214.14 90.85H131.04L133.09 94.11C131.361 97.1869 130.018 100.465 129.09 103.87L111.48 107.79V124.57L129.09 128.5C130.018 131.931 131.361 135.235 133.09 138.34L123.42 153.55L135.27 165.39L150.47 155.71C153.554 157.445 156.834 158.804 160.24 159.76L164.16 177.31H180.86L184.8 159.72C188.195 158.76 191.465 157.4 194.54 155.67L209.75 165.35L221.59 153.51L211.98 138.3C213.683 135.214 215.026 131.943 215.98 128.55L233.61 124.62ZM172.61 137.88C168.332 137.88 164.15 136.611 160.593 134.235C157.036 131.858 154.264 128.48 152.626 124.527C150.989 120.575 150.561 116.226 151.396 112.03C152.23 107.834 154.29 103.98 157.315 100.955C160.34 97.9303 164.194 95.8702 168.39 95.0356C172.586 94.201 176.935 94.6294 180.887 96.2665C184.84 97.9036 188.218 100.676 190.595 104.233C192.971 107.79 194.24 111.972 194.24 116.25C194.241 119.091 193.683 121.904 192.596 124.529C191.51 127.154 189.916 129.539 187.908 131.548C185.899 133.556 183.514 135.15 180.889 136.236C178.264 137.323 175.451 137.881 172.61 137.88Z" fill="#150035"/>
<path d="M122.54 239.57L123.25 226.28L109.48 222.4C108.841 219.669 107.895 217.019 106.66 214.5L114.98 202.82L106.06 192.93L93.6 199.93C91.2184 198.432 88.6715 197.213 86.01 196.3L83.63 182.18L70.35 181.57L66.51 195.38C63.7741 195.994 61.1217 196.934 58.61 198.18L46.94 189.87L37.03 198.78L44.09 211.25C42.5765 213.621 41.3544 216.166 40.45 218.83L36.45 219.49V237.49L39.37 238.31C39.9758 241.05 40.9127 243.706 42.16 246.22L36.42 254.27L36.8 261.16V261.22L42.73 267.79L55.21 260.74C57.5876 262.269 60.1432 263.502 62.82 264.41L65.16 277.97L65.27 278.54L78.55 279.24L78.9 277.97L82.39 265.44C85.1383 264.825 87.8037 263.885 90.33 262.64L101.98 270.94L111.88 262.04L104.88 249.56C106.38 247.192 107.585 244.65 108.47 241.99L122.54 239.57ZM87.27 218.82C84.9952 216.29 82.0211 214.491 78.7238 213.651C75.4266 212.812 71.9544 212.969 68.7464 214.103C65.5385 215.237 62.739 217.297 60.7021 220.022C58.6651 222.748 57.4823 226.016 57.3032 229.414C57.124 232.812 57.9567 236.186 59.6958 239.111C61.4348 242.035 64.0022 244.378 67.0731 245.843C70.144 247.308 73.5805 247.83 76.9477 247.341C80.315 246.853 83.4618 245.377 85.99 243.1C89.3657 240.05 91.3956 235.787 91.6355 231.244C91.8754 226.701 90.3057 222.248 87.27 218.86V218.82Z" fill="#263238"/>
<path d="M228.76 219.76C229.274 217.702 229.546 215.591 229.57 213.47L239.12 208.47L236.48 198.78L225.7 199.28C224.608 197.469 223.309 195.791 221.83 194.28L225.02 183.97L216.32 178.97L209.04 186.91C206.986 186.414 204.883 186.146 202.77 186.11L197.77 176.56L188.09 179.19L188.6 189.98C186.789 191.072 185.111 192.37 183.6 193.85L173.28 190.66L168.28 199.35L176.28 206.62C175.763 208.67 175.497 210.776 175.49 212.89L165.92 217.89L168.56 227.57L179.36 227.06C180.43 228.88 181.724 230.56 183.21 232.06L180 242.32L188.71 247.32L195.95 239.44C198.007 239.958 200.119 240.223 202.24 240.23L207.24 249.79L216.92 247.16L216.49 237.94L216.42 236.36C218.257 235.279 219.956 233.979 221.48 232.49L231.79 235.69L236.05 228.25L236.77 226.99L228.76 219.76ZM205.89 225.64C203.408 226.325 200.778 226.257 198.334 225.445C195.89 224.632 193.743 223.113 192.164 221.079C190.585 219.045 189.646 216.587 189.466 214.019C189.285 211.45 189.872 208.885 191.151 206.65C192.43 204.416 194.344 202.611 196.65 201.465C198.956 200.32 201.551 199.885 204.105 200.216C206.658 200.547 209.056 201.629 210.994 203.324C212.932 205.02 214.323 207.253 214.99 209.74C215.879 213.055 215.421 216.587 213.717 219.565C212.012 222.544 209.198 224.728 205.89 225.64Z" fill="#150035"/>
<path d="M339.48 236.8L341.68 223.5L328.22 218.09C327.914 215.255 327.266 212.469 326.29 209.79L335.98 199L328.14 188L314.78 193.67C312.562 191.892 310.138 190.388 307.56 189.19L306.78 174.7L293.48 172.5L288.03 185.9C285.208 186.232 282.433 186.886 279.76 187.85L268.94 178.16L257.99 186L263.67 199.35C262.107 201.301 260.749 203.409 259.62 205.64C259.47 205.95 259.31 206.26 259.17 206.57L244.69 207.37L242.48 220.65L244.66 221.53L255.94 226.08C256.248 228.901 256.896 231.675 257.87 234.34L248.16 245.2L256.01 256.2L269.36 250.5C271.571 252.294 273.992 253.812 276.57 255.02L277.32 269.44L290.61 271.64L296.05 258.34C298.878 258.031 301.659 257.38 304.33 256.4L315.13 266.09L326.13 258.24L320.45 244.88C322.259 242.66 323.788 240.225 325 237.63L339.48 236.8ZM302.18 236.2C299.382 238.207 296.052 239.34 292.61 239.455C289.168 239.569 285.77 238.661 282.844 236.844C279.919 235.026 277.599 232.383 276.176 229.247C274.753 226.111 274.293 222.623 274.852 219.225C275.412 215.828 276.966 212.672 279.319 210.158C281.673 207.643 284.718 205.883 288.072 205.1C291.425 204.317 294.936 204.546 298.159 205.758C301.382 206.971 304.173 209.111 306.18 211.91C308.868 215.664 309.954 220.332 309.2 224.888C308.446 229.443 305.914 233.512 302.16 236.2H302.18Z" fill="#150035"/>
<path d="M159.24 138.34H54.66C47.4196 138.34 41.55 144.21 41.55 151.45V296.24C41.55 303.48 47.4196 309.35 54.66 309.35H159.24C166.481 309.35 172.35 303.48 172.35 296.24V151.45C172.35 144.21 166.481 138.34 159.24 138.34Z" fill="white" stroke="#150035" stroke-width="3" stroke-miterlimit="10"/>
<path opacity="0.2" d="M158.85 138.57H54.27C47.0296 138.57 41.16 144.44 41.16 151.68V296.47C41.16 303.71 47.0296 309.58 54.27 309.58H158.85C166.09 309.58 171.96 303.71 171.96 296.47V151.68C171.96 144.44 166.09 138.57 158.85 138.57Z" fill="black"/>
<path d="M184.52 164.37V309.16C184.521 310.882 184.183 312.588 183.525 314.18C182.867 315.772 181.901 317.218 180.684 318.437C179.466 319.655 178.021 320.622 176.429 321.281C174.838 321.941 173.132 322.28 171.41 322.28H66.83C65.1084 322.279 63.4038 321.938 61.8138 321.278C60.2237 320.618 58.7792 319.651 57.5627 318.433C56.3463 317.215 55.3817 315.769 54.7241 314.178C54.0665 312.587 53.7287 310.882 53.73 309.16V164.37C53.73 160.895 55.1098 157.562 57.5663 155.103C60.0227 152.645 63.3547 151.263 66.83 151.26H171.41C174.887 151.26 178.222 152.641 180.68 155.1C183.139 157.558 184.52 160.893 184.52 164.37Z" fill="white" stroke="#150035" stroke-width="3" stroke-linecap="round" stroke-linejoin="round"/>
<path d="M184.52 164.37V172.12H53.7301V164.37C53.7301 160.895 55.11 157.562 57.5664 155.103C60.0228 152.645 63.3548 151.263 66.8301 151.26H171.41C174.887 151.26 178.222 152.641 180.68 155.1C183.139 157.558 184.52 160.893 184.52 164.37Z" fill="#FFB000" stroke="#150035" stroke-width="3" stroke-miterlimit="10"/>
<path d="M98.21 181.1H66.03V186.5H98.21V181.1Z" fill="#FFB000"/>
<path d="M98.21 229.49H66.03V234.89H98.21V229.49Z" fill="#FFB000"/>
<path d="M98.21 273.37H66.03V278.77H98.21V273.37Z" fill="#FFB000"/>
<path d="M157.42 194.47H66.03V198.43H157.42V194.47Z" fill="#150035"/>
<path d="M140.94 202.04H66.03V205.9H140.94V202.04Z" fill="#150035"/>
<path d="M150.75 209.49H66.03V213.35H150.75V209.49Z" fill="#150035"/>
<path d="M150.75 216.93H66.03V220.79H150.75V216.93Z" fill="#150035"/>
<path d="M157.42 238.35H66.03V242.31H157.42V238.35Z" fill="#150035"/>
<path d="M140.94 245.92H66.03V249.78H140.94V245.92Z" fill="#150035"/>
<path d="M150.75 253.37H66.03V257.23H150.75V253.37Z" fill="#150035"/>
<path d="M157.42 286.53H66.03V290.49H157.42V286.53Z" fill="#150035"/>
<path d="M140.94 294.11H66.03V297.97H140.94V294.11Z" fill="#150035"/>
<path d="M150.75 301.56H66.03V305.42H150.75V301.56Z" fill="#150035"/>
<path d="M331.93 50.86V109.38C331.93 111.433 331.525 113.467 330.739 115.364C329.953 117.261 328.801 118.984 327.349 120.436C325.896 121.887 324.172 123.038 322.275 123.823C320.377 124.608 318.344 125.011 316.29 125.01H181.51C179.457 125.011 177.423 124.608 175.526 123.823C173.628 123.038 171.904 121.887 170.452 120.436C168.999 118.984 167.847 117.261 167.061 115.364C166.275 113.467 165.87 111.433 165.87 109.38V50.86C165.873 46.7128 167.521 42.7363 170.454 39.8038C173.386 36.8713 177.363 35.2227 181.51 35.22H316.29C320.438 35.22 324.416 36.8678 327.349 39.8008C330.282 42.7339 331.93 46.712 331.93 50.86Z" fill="white" stroke="#150035" stroke-width="3" stroke-miterlimit="10"/>
<path d="M331.93 50.86V52.2H165.87V50.86C165.873 46.7128 167.521 42.7363 170.454 39.8038C173.386 36.8713 177.363 35.2227 181.51 35.22H316.29C320.438 35.22 324.416 36.8678 327.349 39.8008C330.282 42.7339 331.93 46.712 331.93 50.86Z" fill="#FFB000" stroke="#150035" stroke-width="3" stroke-miterlimit="10"/>
<path d="M190.27 46.51C189.935 46.8462 189.507 47.0754 189.041 47.1685C188.576 47.2615 188.093 47.2143 187.654 47.0329C187.215 46.8514 186.84 46.5438 186.576 46.149C186.312 45.7542 186.171 45.2899 186.171 44.815C186.171 44.3401 186.312 43.8758 186.576 43.481C186.84 43.0862 187.215 42.7786 187.654 42.5971C188.093 42.4156 188.576 42.3685 189.041 42.4615C189.507 42.5546 189.935 42.7838 190.27 43.12C190.716 43.5712 190.967 44.1803 190.967 44.815C190.967 45.4497 190.716 46.0588 190.27 46.51Z" fill="#263238"/>
<path d="M201.39 46.51C201.055 46.8462 200.627 47.0754 200.161 47.1685C199.696 47.2615 199.213 47.2143 198.774 47.0329C198.335 46.8514 197.96 46.5438 197.696 46.149C197.432 45.7542 197.291 45.2899 197.291 44.815C197.291 44.3401 197.432 43.8758 197.696 43.481C197.96 43.0862 198.335 42.7786 198.774 42.5971C199.213 42.4156 199.696 42.3685 200.161 42.4615C200.627 42.5546 201.055 42.7838 201.39 43.12C201.836 43.5712 202.087 44.1803 202.087 44.815C202.087 45.4497 201.836 46.0588 201.39 46.51Z" fill="#263238"/>
<path d="M212.51 46.51C212.175 46.8462 211.747 47.0754 211.281 47.1685C210.816 47.2615 210.333 47.2143 209.894 47.0329C209.455 46.8514 209.08 46.5438 208.816 46.149C208.552 45.7542 208.411 45.2899 208.411 44.815C208.411 44.3401 208.552 43.8758 208.816 43.481C209.08 43.0862 209.455 42.7786 209.894 42.5971C210.333 42.4156 210.816 42.3685 211.281 42.4615C211.747 42.5546 212.175 42.7838 212.51 43.12C212.956 43.5712 213.207 44.1803 213.207 44.815C213.207 45.4497 212.956 46.0588 212.51 46.51Z" fill="#263238"/>
<path d="M230.74 62.96H176.46V109.88H230.74V62.96Z" stroke="#150035" stroke-width="2" stroke-linecap="round" stroke-linejoin="round" stroke-dasharray="4.41 4.41"/>
<path d="M301.59 62.96H239.12V66.26H301.59V62.96Z" fill="#150035"/>
<path d="M287.04 69.79H239.12V73.08H287.04V69.79Z" fill="#150035"/>
<path d="M310.47 76.59H239.12V79.92H310.47V76.59Z" fill="#150035"/>
<path d="M299.88 83.22H239.12V86.55H299.88V83.22Z" fill="#150035"/>
<path d="M336.47 196.1H305.92C302.314 196.1 299.39 199.024 299.39 202.63V220.56C299.39 224.166 302.314 227.09 305.92 227.09H336.47C340.077 227.09 343 224.166 343 220.56V202.63C343 199.024 340.077 196.1 336.47 196.1Z" fill="white" stroke="#150035" stroke-width="3" stroke-linecap="round" stroke-linejoin="round"/>
<path d="M313.46 205.42L305.07 210.68L312.86 217.58" stroke="#150035" stroke-width="3" stroke-linecap="round" stroke-linejoin="round"/>
<path d="M328.74 218.08L336.28 211.66L327.58 205.96" stroke="#150035" stroke-width="3" stroke-linecap="round" stroke-linejoin="round"/>
<path d="M317.54 222.04L323.73 202.62" stroke="#150035" stroke-width="3" stroke-linecap="round" stroke-linejoin="round"/>
<path d="M253.02 391.04C253.02 391.04 224.02 399.35 219.97 400.79C216.29 402.09 206.31 405.59 198.82 404.5C198.097 404.396 197.382 404.242 196.68 404.04C189.09 401.78 185.68 399.67 184.68 394.9C183.68 390.13 187.46 386.61 191.1 384.36C194.74 382.11 214.48 379.76 214.48 379.76L219.25 381.16L253.02 391.04Z" fill="#FFB000"/>
<path d="M198.82 404.5C198.097 404.396 197.382 404.242 196.68 404.04C189.09 401.78 185.68 399.67 184.68 394.9C183.68 390.13 187.46 386.61 191.1 384.36C194.74 382.11 214.48 379.76 214.48 379.76L219.25 381.16C214.93 383.16 198.85 384.25 195.34 386.27C191.83 388.29 190.14 392.09 192.21 397.27C193.32 399.97 196.28 402.62 198.82 404.5Z" fill="#150035"/>
<path d="M248.66 392.22C248.66 392.22 226.88 397.86 218.24 401.47C209.6 405.08 193.13 406.66 187.24 399.22C181.35 391.78 186.56 385.36 192.43 383.93C198.3 382.5 210.17 380.25 216.65 381.16" stroke="#150035" stroke-width="3" stroke-linecap="round" stroke-linejoin="round"/>
<path d="M199.25 404.11C199.25 404.11 188.17 398.03 191.85 389.51C194.57 383.23 209.35 384.59 216.67 381.16" stroke="#150035" stroke-width="1.10311" stroke-linecap="round" stroke-linejoin="round"/>
<path d="M341.35 405.85C341.05 408.85 340 411.66 337 413.43C335 414.61 332.16 415.31 328.09 415.27C317.92 415.14 298.8 407.87 298.8 407.87L280.9 397.97L290.21 383.24L292.76 379.24L299.34 380.72C299.34 380.72 304.79 383.81 310.27 386.27C315.75 388.73 329.06 389.27 333.75 393.04C338.44 396.81 341.86 400.91 341.35 405.85Z" fill="#FFB000"/>
<path d="M341.35 405.85C341.05 408.85 340 411.66 337 413.43C337.864 410.481 337.688 407.324 336.5 404.49C334.5 400 327.99 396.04 319.43 395.38C310.87 394.72 304.32 390.72 300.89 388.93C298.21 387.54 292.56 384.5 290.21 383.24L292.76 379.24L299.34 380.72C299.34 380.72 304.79 383.81 310.27 386.27C315.75 388.73 329.06 389.27 333.75 393.04C338.44 396.81 341.86 400.91 341.35 405.85Z" fill="#150035"/>
<path d="M284.87 400.75C297.755 408.24 311.995 413.103 326.77 415.06C330.03 415.45 333.82 415.51 336 413.06C336.58 412.352 337.012 411.535 337.269 410.657C337.527 409.78 337.606 408.859 337.5 407.95C337.11 403.35 333.24 399.71 329 397.88C324.76 396.05 320.09 395.63 315.58 394.62C311.095 393.609 306.759 392.022 302.68 389.9C299.44 388.21 296.31 386.16 292.74 385.4C289.17 384.64 284.92 385.56 283.01 388.68" stroke="#263238" stroke-width="1.10311" stroke-linecap="round" stroke-linejoin="round"/>
<path d="M334.8 414.31C336.476 413.508 337.94 412.325 339.078 410.856C340.215 409.387 340.993 407.673 341.35 405.85C342 401.52 339.53 397.16 336.06 394.5C332.59 391.84 328.24 390.58 323.95 389.69C319.66 388.8 315.27 388.2 311.16 386.57C304.89 384.11 298.7 379.27 292.16 381" stroke="#150035" stroke-width="1.10311" stroke-linecap="round" stroke-linejoin="round"/>
<path d="M274.247 235.712L304.209 247.108L334.096 307.716C320.6 329.491 295.614 338.869 288.453 341.171C287.84 341.368 287.363 341.512 287.043 341.606L287.001 341.618C286.892 341.65 286.803 341.676 286.734 341.695C286.658 341.697 286.559 341.7 286.437 341.703C286.121 341.71 285.654 341.721 285.056 341.733C283.859 341.758 282.135 341.788 280.027 341.811C275.811 341.857 270.066 341.874 263.945 341.762C257.821 341.649 251.337 341.406 245.639 340.932C239.896 340.454 235.098 339.752 232.259 338.772C226.407 336.752 218.245 331.752 211.288 326.759C207.829 324.276 204.712 321.827 202.38 319.8C201.212 318.786 200.257 317.892 199.559 317.162C198.811 316.38 198.5 315.929 198.435 315.78C198.215 315.275 198.099 314.388 198.186 312.992C198.27 311.636 198.531 309.987 198.9 308.076C199.163 306.715 199.485 305.212 199.827 303.613C200.423 300.823 201.081 297.743 201.6 294.626C201.734 293.82 201.89 292.859 202.068 291.77C202.975 286.206 204.423 277.326 206.129 269.015C207.15 264.044 208.255 259.317 209.381 255.646C209.945 253.808 210.503 252.274 211.042 251.121C211.615 249.897 212.06 249.345 212.287 249.184L212.287 249.184L212.293 249.18C213.195 248.534 215.071 247.57 217.567 246.432C220.021 245.313 222.956 244.078 225.887 242.887C231.732 240.514 237.513 238.34 239.331 237.66L239.887 237.465L240.988 237.079L240.884 235.917L240.884 235.917L240.884 235.917L240.884 235.917L240.884 235.916L240.883 235.909L240.88 235.871C240.878 235.836 240.873 235.782 240.869 235.711C240.859 235.569 240.847 235.358 240.836 235.092C240.814 234.56 240.798 233.812 240.824 232.957C240.876 231.26 241.09 229.277 241.66 227.721C242.722 226.082 244.425 225.408 246.059 225.172C246.886 225.053 247.647 225.055 248.202 225.088C248.478 225.104 248.699 225.128 248.845 225.147C248.918 225.157 248.972 225.165 249.005 225.17L249.038 225.175L249.039 225.175L249.039 225.175L249.04 225.176L249.041 225.176L249.043 225.176L249.494 225.259L249.918 225.071L249.918 225.071L249.918 225.071L249.918 225.071L249.92 225.07L249.934 225.064L249.998 225.037C250.056 225.012 250.144 224.975 250.259 224.927C250.49 224.833 250.829 224.698 251.251 224.542C252.098 224.229 253.27 223.836 254.575 223.507C255.885 223.177 257.293 222.923 258.621 222.87C259.964 222.817 261.115 222.975 261.985 223.374C264.582 224.564 267.187 224.691 269.145 224.787L269.224 224.791C270.254 224.841 271.028 224.883 271.649 225.012C272.254 225.137 272.491 225.304 272.604 225.438L272.611 225.446C272.674 225.52 272.81 225.752 272.935 226.255C273.053 226.731 273.133 227.327 273.177 228.003C273.264 229.354 273.197 230.863 273.105 232.043L273.104 232.048C273.061 232.628 273.012 233.11 272.975 233.445C272.957 233.612 272.941 233.743 272.93 233.83C272.925 233.874 272.92 233.907 272.918 233.928L272.915 233.951L272.914 233.956L272.914 233.956L272.914 233.956L272.914 233.956L272.914 233.956L272.914 233.956L272.753 235.123L273.849 235.555L274.229 235.705L274.238 235.709L274.247 235.712ZM231.9 302.405L231.901 302.405L231.902 302.405L231.902 302.405L233.931 302.566L233.483 300.58L229.423 282.58L228.371 277.917L226.57 282.345L217.05 305.755L216.649 306.741L217.448 307.445L221.238 310.785L224.578 313.728L223.701 309.366L223.701 309.365L223.701 309.365L223.701 309.365L223.701 309.364L223.699 309.356L223.691 309.315C223.684 309.277 223.673 309.217 223.66 309.14C223.633 308.985 223.597 308.758 223.559 308.479C223.484 307.918 223.407 307.165 223.394 306.378C223.38 305.578 223.434 304.81 223.588 304.192C223.749 303.55 223.963 303.28 224.096 303.185C224.385 302.982 224.954 302.769 225.817 302.609C226.646 302.455 227.594 302.377 228.513 302.345C229.426 302.314 230.279 302.329 230.904 302.352C231.216 302.364 231.469 302.377 231.643 302.388C231.73 302.393 231.796 302.398 231.84 302.401L231.889 302.404L231.9 302.405ZM300.076 318.164L299.669 316.484C299.844 316.318 300.09 316.096 300.392 315.832C300.473 315.924 300.532 316.015 300.573 316.092C300.681 316.294 300.703 316.46 300.708 316.497C300.711 316.524 300.712 316.543 300.713 316.554C300.713 316.566 300.713 316.568 300.713 316.557C300.715 316.496 300.726 316.388 300.751 316.224C300.766 316.259 300.78 316.296 300.793 316.333C300.909 316.668 300.876 316.954 300.847 317.101C300.817 317.257 300.768 317.373 300.739 317.434C300.683 317.555 300.624 317.635 300.61 317.654C300.589 317.682 300.575 317.699 300.574 317.7L300.574 317.7C300.573 317.701 300.589 317.683 300.632 317.64C300.672 317.601 300.725 317.55 300.792 317.487C301.068 317.23 301.505 316.848 302.068 316.369C303.186 315.417 304.732 314.142 306.304 312.86C307.873 311.578 309.459 310.296 310.654 309.332L311.47 308.674L312.101 308.165C312.276 308.024 312.415 307.911 312.511 307.833L312.547 307.804C312.579 307.778 312.606 307.756 312.627 307.739C312.633 307.734 312.639 307.729 312.646 307.723C312.654 307.716 312.663 307.709 312.671 307.702C312.677 307.697 312.692 307.684 312.71 307.668C312.716 307.663 312.74 307.641 312.769 307.613C312.786 307.595 312.832 307.545 312.861 307.512C312.924 307.431 313.152 306.965 313.21 306.55V306.332L313.148 306.124C312.039 302.383 308.479 295.407 305.293 289.512C303.683 286.531 302.139 283.776 300.998 281.766C300.428 280.76 299.958 279.941 299.63 279.372C299.466 279.088 299.338 278.867 299.25 278.716L299.15 278.544L299.125 278.5L299.118 278.488L299.116 278.485L299.116 278.484C299.116 278.484 299.116 278.484 297.82 279.24L299.116 278.484L298.045 276.649L296.674 278.272L295.534 279.622L295.282 279.92L295.208 280.303L291.778 297.903L291.773 297.928L291.769 297.954L291.279 301.024L290.99 302.835L292.82 302.759L292.821 302.759L292.821 302.759L292.822 302.759L292.822 302.759L292.828 302.759L292.865 302.757C292.9 302.757 292.955 302.755 293.027 302.755C293.172 302.753 293.385 302.754 293.649 302.762C294.18 302.778 294.901 302.824 295.668 302.941C296.441 303.06 297.218 303.245 297.882 303.52C298.556 303.798 299.012 304.127 299.272 304.472C299.291 304.498 299.386 304.661 299.445 305.097C299.502 305.51 299.51 306.047 299.467 306.694C299.381 307.99 299.106 309.533 298.788 311.052C298.646 311.73 298.485 312.446 298.335 313.117C298.17 313.854 298.017 314.536 297.914 315.053C297.815 315.554 297.724 316.077 297.714 316.483C297.711 316.593 297.713 316.731 297.732 316.879C297.749 317.009 297.791 317.249 297.927 317.505C298.077 317.786 298.397 318.172 298.958 318.306C299.469 318.428 299.88 318.265 300.076 318.164Z" fill="#FFB000" stroke="#150035" stroke-width="3"/>
<path d="M247.88 172.82L232.24 189.42C232.24 189.42 230.09 191.33 230.94 196.14C231.79 200.95 233.79 205.14 235.3 205.42C236.495 205.629 237.707 205.736 238.92 205.74C238.92 205.74 242.27 213 244.65 215.85C244.65 215.85 245.47 227.06 245.03 230.17C245.03 230.17 250.65 235.08 255.94 235.7C261.23 236.32 269.4 228.22 269.4 228.22L271.4 218.3C271.4 218.3 276.2 211.02 276.52 209.08C276.84 207.14 279.04 207.64 280.12 206.68C281.2 205.72 283.69 201.45 284.12 197.41C284.55 193.37 284.56 188.73 279.87 190.09C275.8 189 278.35 180.4 278.35 180.4L271.2 174.1L247.88 172.82Z" fill="white"/>
<path opacity="0.5" d="M274.78 234.31C274.544 234.928 274.274 235.532 273.97 236.12C271.39 240.98 260.15 250.25 260.15 250.25L256.75 239.8L254.89 250.25C251.14 248.61 239.7 238.7 239.7 238.7C239.7 238.7 239.31 237.77 238.84 236.32L239.41 236.12C239.41 236.12 238.93 230.71 240.33 227.12C243.07 222.62 249.33 223.77 249.33 223.77C249.33 223.77 257.96 219.94 262.63 222.08C267.3 224.22 272.08 222.56 273.77 224.54C275.46 226.52 274.42 234.2 274.42 234.2L274.78 234.31Z" fill="white"/>
<path opacity="0.2" d="M305.07 245.83L274.78 234.31L274.4 234.16C274.4 234.16 274.51 233.36 274.6 232.16L273.97 236.09L269.49 242.17C274.279 243.933 278.955 245.991 283.49 248.33C285.661 249.493 287.433 251.282 288.574 253.465C289.715 255.648 290.174 258.123 289.89 260.57L284.31 308.32L282.02 335.43L288.93 342.6C296.21 340.26 322.04 330.6 335.75 307.92C335.75 307.96 322.47 264.43 305.07 245.83ZM299.39 316.83C298.34 317.37 302.39 306.12 300.47 303.57C298.55 301.02 292.76 301.26 292.76 301.26L293.25 298.19L296.68 280.59L297.82 279.24C297.82 279.24 309.6 299.43 311.71 306.55C311.71 306.57 298.87 316.83 299.39 316.83Z" fill="black"/>
<path opacity="0.2" d="M234.03 303.57L229.32 287.83C229.32 287.83 220.87 259.02 215.08 251.92L216.6 272.18C216.6 272.18 211.6 296.38 207.03 303.57C202.46 310.76 201.44 312.57 207.03 312.57C212.62 312.57 226.23 323.41 226.23 323.41L225.18 314.41L234.03 303.57ZM222.16 309.66L218.37 306.32L227.89 282.91L231.95 300.91C231.95 300.91 225.43 300.42 223.2 301.99C220.97 303.56 222.16 309.66 222.16 309.66Z" fill="black"/>
<path d="M244.65 215.85C244.65 215.85 245.51 224.34 244.65 228.22" stroke="#263238" stroke-width="1.10311" stroke-linecap="round" stroke-linejoin="round"/>
<path d="M270.27 227.08C270.279 224.35 270.595 221.63 271.21 218.97" stroke="#263238" stroke-width="1.10311" stroke-linecap="round" stroke-linejoin="round"/>
<path d="M272.54 179.15C272.54 179.15 277.68 185.6 277.41 190.48C277.14 195.36 276.76 201.14 276.89 206.8C277.02 212.46 267.8 224.32 263.06 225.37C258.32 226.42 254.24 226.69 251.21 223.66C248.18 220.63 245.15 216.42 241.21 211.02C237.27 205.62 238.21 193.77 238.21 193.77" stroke="#263238" stroke-width="1.10311" stroke-linecap="round" stroke-linejoin="round"/>
<path d="M260.16 198.28C259.847 200.052 259.713 201.851 259.76 203.65C259.657 205.166 260.128 206.665 261.08 207.85C261.65 208.43 262.47 208.9 262.58 209.7C262.577 210.06 262.477 210.413 262.291 210.721C262.104 211.029 261.838 211.281 261.52 211.45C260.879 211.774 260.261 212.141 259.67 212.55" stroke="#150035" stroke-width="1.10311" stroke-linecap="round" stroke-linejoin="round"/>
<path d="M252.03 213.17C252.03 213.17 252.62 217 257.75 217.8" stroke="#150035" stroke-width="1.10311" stroke-linecap="round" stroke-linejoin="round"/>
<path d="M252.56 201.2C252.56 202.31 252.08 203.2 251.49 203.2C250.9 203.2 250.42 202.31 250.42 201.2C250.42 200.09 250.9 199.2 251.49 199.2C252.08 199.2 252.56 200.1 252.56 201.2Z" fill="#150035"/>
<path d="M267.87 201.68C267.87 202.79 267.39 203.68 266.8 203.68C266.21 203.68 265.73 202.78 265.73 201.68C265.73 200.58 266.21 199.68 266.8 199.68C267.39 199.68 267.87 200.57 267.87 201.68Z" fill="#150035"/>
<path d="M264.78 196.83C264.78 196.83 269.78 191.83 273.97 197.41" stroke="#150035" stroke-width="2.20621" stroke-linecap="round" stroke-linejoin="round"/>
<path d="M254.25 196.93C254.25 196.93 251.09 193.39 246.11 196.93" stroke="#150035" stroke-width="2.20621" stroke-linecap="round" stroke-linejoin="round"/>
<path d="M245.03 220.57C245.03 220.57 248.08 228.97 254.89 231.36C261.7 233.75 270.74 221.36 270.74 221.36L270.27 219.75C270.27 219.75 264.34 227.45 257.75 226.14C251.16 224.83 244.65 215.89 244.65 215.89L245.03 220.57Z" fill="#150035"/>
<path d="M238.92 205.42C238.92 205.42 234.86 206.85 233.78 203.69C232.7 200.53 229 192.2 232.24 189.42C235.48 186.64 238.08 193.09 238.08 193.09" stroke="#263238" stroke-width="1.10311" stroke-linecap="round" stroke-linejoin="round"/>
<path d="M276.88 207.14C276.88 207.14 280.65 207.9 281.73 204.74C282.81 201.58 286.51 193.25 283.27 190.47C280.03 187.69 277.43 194.14 277.43 194.14" stroke="#263238" stroke-width="1.10311" stroke-linecap="round" stroke-linejoin="round"/>
<path d="M238.08 201.2C239.49 200.978 240.763 200.227 241.64 199.1C242.176 198.111 242.515 197.028 242.64 195.91C243.011 193.783 243.199 191.629 243.2 189.47C243.156 188.627 243.233 187.781 243.43 186.96C243.73 186.134 244.193 185.375 244.79 184.73C246.2 183.07 247.91 181.67 249.26 179.95C249.984 179.138 250.534 178.188 250.878 177.156C251.222 176.124 251.352 175.034 251.26 173.95C254.354 176.501 257.969 178.343 261.851 179.347C265.733 180.35 269.788 180.492 273.73 179.76C280.88 178.36 287.73 172.09 286.9 164.21C286.743 162.889 286.177 161.65 285.28 160.667C284.383 159.684 283.201 159.007 281.9 158.73C278.37 157.85 275.2 159.73 272 160.94C266.17 163.14 260.46 159.36 254.57 158.73C249.57 158.18 243.34 158.81 240.72 163.82C240.72 163.82 231.72 164.88 227.72 172.32C223.72 179.76 231.29 190.05 231.29 190.05C231.29 190.05 234.29 186.37 238.22 193.81L238.08 201.2Z" fill="#150035"/>
<path d="M273.16 177.25C273.16 177.25 270.82 189.45 276.93 195.36C276.93 195.36 278.27 191.69 279.62 190.79C280.593 188.625 281.006 186.25 280.819 183.883C280.632 181.517 279.851 179.235 278.55 177.25C274.03 170.15 273.16 177.25 273.16 177.25Z" fill="#150035"/>
<path opacity="0.2" d="M284.3 163.37C283.764 165.035 282.854 166.555 281.641 167.815C280.428 169.075 278.943 170.041 277.3 170.64C268.82 174.1 260.59 170.27 252.09 169.52C245.16 168.9 237.51 175.16 237.02 182.28" stroke="white" stroke-width="1.10311" stroke-linecap="round" stroke-linejoin="round"/>
<path opacity="0.2" d="M231.79 180.4C231.894 177.59 232.795 174.868 234.389 172.552C235.983 170.236 238.203 168.421 240.79 167.32" stroke="white" stroke-width="1.10311" stroke-linecap="round" stroke-linejoin="round"/>
<path d="M242.69 227.08C246.419 230.966 250.918 234.032 255.9 236.08C255.9 236.08 266.05 233.13 271.21 226.08" stroke="#263238" stroke-width="1.10311" stroke-linecap="round" stroke-linejoin="round"/>
<path d="M253.063 209.343C257.571 207.275 259.549 201.944 257.481 197.436C255.413 192.928 250.083 190.95 245.575 193.018C241.067 195.086 239.089 200.416 241.157 204.924C243.224 209.432 248.555 211.41 253.063 209.343Z" stroke="#150035" stroke-width="1.10311" stroke-linecap="round" stroke-linejoin="round"/>
<path d="M270.464 210.133C275.386 209.529 278.887 205.048 278.282 200.126C277.678 195.203 273.198 191.702 268.275 192.307C263.352 192.911 259.852 197.392 260.456 202.314C261.061 207.237 265.541 210.737 270.464 210.133Z" stroke="#150035" stroke-width="1.10311" stroke-linecap="round" stroke-linejoin="round"/>
<path d="M244.65 223.73C243.74 223.969 242.888 224.389 242.144 224.964C241.4 225.54 240.78 226.259 240.32 227.08C238.73 229.88 239.69 238.69 239.69 238.69C239.69 238.69 247.9 246.81 254.89 250.24L256.95 238.65L260.15 250.24C260.15 250.24 270.97 242.59 273.97 236.12C273.97 236.12 274.97 228.57 273.97 226.12C273.743 225.44 273.31 224.846 272.732 224.422C272.153 223.997 271.457 223.763 270.74 223.75" stroke="#263238" stroke-width="1.10311" stroke-linecap="round" stroke-linejoin="round"/>
<path d="M231.79 301.27C231.79 301.27 228.58 279.77 224.31 271" stroke="#263238" stroke-width="1.10311" stroke-linecap="round" stroke-linejoin="round"/>
<path d="M215.08 251.92C217.566 255.453 219.786 259.167 221.72 263.03" stroke="#263238" stroke-width="1.10311" stroke-linecap="round" stroke-linejoin="round"/>
<path d="M299.39 267.97C300.252 264.375 301.433 260.865 302.92 257.48" stroke="#263238" stroke-width="1.10311" stroke-linecap="round" stroke-linejoin="round"/>
<path d="M292.76 301.27C292.76 301.27 295.07 286.53 297.83 274.39" stroke="#263238" stroke-width="1.10311" stroke-linecap="round" stroke-linejoin="round"/>
<path d="M296.68 280.57C298.913 277.61 302.052 275.46 305.62 274.45" stroke="#263238" stroke-width="1.10311" stroke-linecap="round" stroke-linejoin="round"/>
<path d="M274.41 234.16C274.41 234.16 293.04 241.61 305.07 245.84C305.07 245.84 319.87 259.75 335.74 307.96C335.74 307.96 321.2 332.42 293.54 340.26" stroke="#263238" stroke-width="1.10311" stroke-linecap="round" stroke-linejoin="round"/>
<path d="M298.34 317.7L311.71 306.57C311.71 306.57 318.78 301.2 326.13 304.87" stroke="#263238" stroke-width="1.10311" stroke-linecap="round" stroke-linejoin="round"/>
<path d="M297.83 279.24C297.83 279.24 308.88 295.57 311.71 306.57" stroke="#263238" stroke-width="1.10311" stroke-linecap="round" stroke-linejoin="round"/>
<path d="M222.31 310.28L218.4 306.57C218.4 306.57 212.6 305.57 206.02 309.96" stroke="#263238" stroke-width="1.10311" stroke-linecap="round" stroke-linejoin="round"/>
<path d="M218.4 306.57C218.4 306.57 223.26 290.57 228.05 282.38" stroke="#263238" stroke-width="1.10311" stroke-linecap="round" stroke-linejoin="round"/>
<path d="M239.41 236.12C239.41 236.12 212.6 246.18 209.97 249.12C207.34 252.06 197.35 308.31 197.08 314.75C196.85 320.51 217.73 333.44 228.08 338.89" stroke="#263238" stroke-width="1.10311" stroke-linecap="round" stroke-linejoin="round"/>
<path d="M259.46 255.13C259.46 255.48 259.356 255.822 259.162 256.113C258.967 256.404 258.691 256.631 258.367 256.765C258.044 256.899 257.688 256.934 257.345 256.866C257.001 256.798 256.686 256.629 256.438 256.382C256.191 256.134 256.022 255.819 255.954 255.475C255.886 255.132 255.921 254.776 256.055 254.453C256.189 254.129 256.416 253.853 256.707 253.658C256.998 253.464 257.34 253.36 257.69 253.36C257.923 253.359 258.154 253.404 258.369 253.492C258.584 253.581 258.78 253.711 258.945 253.875C259.109 254.04 259.24 254.236 259.328 254.451C259.416 254.666 259.461 254.897 259.46 255.13Z" fill="#263238"/>
<path d="M290.48 349.35H229.48C229.101 349.35 228.737 349.199 228.469 348.931C228.201 348.663 228.05 348.299 228.05 347.92C228.05 347.541 228.201 347.177 228.469 346.909C228.737 346.641 229.101 346.49 229.48 346.49H290.48C290.859 346.49 291.223 346.641 291.491 346.909C291.759 347.177 291.91 347.541 291.91 347.92C291.91 348.299 291.759 348.663 291.491 348.931C291.223 349.199 290.859 349.35 290.48 349.35Z" fill="#263238"/>
<path d="M292.62 344.57L300.79 306.17C300.917 305.575 300.909 304.958 300.767 304.367C300.624 303.775 300.351 303.222 299.968 302.749C299.584 302.277 299.1 301.896 298.55 301.635C298 301.373 297.399 301.239 296.79 301.24H225.49C224.886 301.24 224.29 301.374 223.745 301.632C223.199 301.891 222.718 302.267 222.335 302.734C221.953 303.2 221.678 303.746 221.532 304.332C221.386 304.917 221.372 305.528 221.49 306.12L228.82 343.24C229 344.152 229.485 344.975 230.196 345.573C230.907 346.171 231.801 346.509 232.73 346.53L288.52 347.81C289.474 347.831 290.405 347.519 291.153 346.928C291.901 346.336 292.42 345.503 292.62 344.57Z" fill="#FFB000" stroke="#150035" stroke-width="3" stroke-linecap="round" stroke-linejoin="round"/>
<path d="M266.1 323.399C266.098 324.425 265.792 325.428 265.221 326.28C264.649 327.132 263.838 327.796 262.89 328.188C261.941 328.579 260.898 328.68 259.892 328.479C258.886 328.278 257.962 327.783 257.237 327.057C256.512 326.331 256.019 325.406 255.819 324.399C255.62 323.393 255.723 322.35 256.116 321.402C256.509 320.454 257.174 319.644 258.028 319.074C258.881 318.504 259.884 318.2 260.91 318.2C261.592 318.2 262.268 318.335 262.898 318.596C263.528 318.857 264.101 319.24 264.583 319.723C265.065 320.206 265.447 320.78 265.708 321.41C265.968 322.041 266.101 322.717 266.1 323.399Z" fill="white" stroke="black"/>
<path d="M277.79 304.91H286.26" stroke="#263238" stroke-width="1.10311" stroke-linecap="round" stroke-linejoin="round"/>
<path d="M237.34 304.91H269.49" stroke="#263238" stroke-width="1.10311" stroke-linecap="round" stroke-linejoin="round"/>
<path d="M292.436 383.875L291.646 384.05L291.358 384.806L285.332 400.624C284.891 400.515 284.342 400.38 283.693 400.222C281.803 399.761 279.062 399.101 275.658 398.306C268.849 396.715 259.383 394.579 248.751 392.401L248.751 392.401C226.465 387.835 203.976 382.025 192.324 361.578C190.943 359.148 190.168 356.52 190.729 354.18L190.729 354.176C191.442 351.175 193.762 349.144 196.919 347.741C200.075 346.338 203.825 345.681 206.908 345.321C210.782 344.902 214.676 344.685 218.573 344.67C219.156 344.67 220.025 344.593 220.925 344.512C220.994 344.506 221.063 344.5 221.133 344.494C222.015 344.414 222.981 344.327 223.934 344.271C224.968 344.211 225.936 344.19 226.718 344.248C227.109 344.277 227.418 344.323 227.649 344.38C227.865 344.434 227.942 344.48 227.943 344.479C227.943 344.479 227.942 344.479 227.942 344.479L227.946 344.482C230.442 346.303 233.106 347.882 235.901 349.197L235.927 349.209L235.953 349.22C236.405 349.413 237.023 349.504 237.586 349.565C238.21 349.632 238.987 349.681 239.882 349.714C241.674 349.782 244.017 349.794 246.705 349.766C252.084 349.71 258.911 349.493 265.615 349.23C272.322 348.967 278.916 348.656 283.832 348.411C286.291 348.289 288.33 348.183 289.756 348.108C290.468 348.07 291.027 348.04 291.408 348.02L291.843 347.996L291.955 347.99L291.983 347.988L291.99 347.988L291.992 347.988C291.992 347.988 291.993 347.988 291.91 346.49L291.993 347.988L292.896 347.938L293.273 347.115C294.127 345.253 294.691 343.273 294.946 341.244C298.891 339.403 305.084 337.676 311.359 336.558C318.063 335.364 324.543 334.924 328.255 335.643C334.316 336.818 338.986 339.152 341.947 341.991C344.89 344.815 346.1 348.075 345.514 351.302C345.399 351.935 344.966 352.877 344.075 354.116C343.204 355.328 341.975 356.713 340.424 358.218C337.322 361.228 333.023 364.631 327.96 367.989C317.822 374.711 304.783 381.142 292.436 383.875Z" fill="#150035" stroke="#150035" stroke-width="3"/>
<path d="M292.76 385.34C292.76 385.34 276.99 381.16 264.11 372.46C251.23 363.76 241.17 353.66 223.22 355.75" stroke="white" stroke-width="1.10311" stroke-linecap="round" stroke-linejoin="round"/>
<path d="M261.16 370.41C269.3 368.07 275.27 362.8 281.8 357.75C288.688 352.222 296.084 347.361 303.89 343.23" stroke="white" stroke-width="1.10311" stroke-linecap="round" stroke-linejoin="round"/>
<path d="M258.29 202.62H260.68" stroke="#150035" stroke-width="1.10311" stroke-linecap="round" stroke-linejoin="round"/>
</svg>
